<svg width="1440" height="897" viewBox="0 0 1440 897" fill="none" xmlns="http://www.w3.org/2000/svg">
<rect width="1440" height="897" fill="#E5E5E5"/>
<rect width="1440" height="897" fill="white"/>
<rect width="1440" height="897" fill="#242424"/>
<circle opacity="0.85" cx="720.5" cy="448.5" r="326.5" fill="url(#paint0_radial)"/>
<circle cx="638.585" cy="646.362" r="52.9355" fill="url(#paint1_radial)"/>
<circle cx="742.911" cy="589.949" r="52.9355" fill="url(#paint2_radial)"/>
<path d="M602.928 512.364L637.812 492.15L672.697 512.364L637.812 532.577L602.928 512.364Z" stroke="url(#paint3_linear)" stroke-width="3" stroke-miterlimit="3.86874" stroke-linecap="round"/>
<path d="M601.63 514.616L636.515 534.829L636.515 575.264L601.63 555.05L601.63 514.616Z" stroke="url(#paint4_linear)" stroke-width="3" stroke-miterlimit="3.86874" stroke-linecap="round"/>
<path d="M638.793 534.829L673.677 514.616L673.677 555.05L638.793 575.264L638.793 534.829Z" stroke="url(#paint5_linear)" stroke-width="3" stroke-miterlimit="3.86874" stroke-linecap="round"/>
<path d="M708.027 568.777L742.911 548.563L777.795 568.777L742.911 588.99L708.027 568.777Z" stroke="url(#paint6_linear)" stroke-width="3" stroke-miterlimit="3.86874" stroke-linecap="round"/>
<path d="M706.729 571.029L741.613 591.242L741.613 631.677L706.729 611.463L706.729 571.029Z" stroke="url(#paint7_linear)" stroke-width="3" stroke-miterlimit="3.86874" stroke-linecap="round"/>
<path d="M743.891 591.242L778.776 571.029L778.776 611.463L743.891 631.677L743.891 591.242Z" stroke="url(#paint8_linear)" stroke-width="3" stroke-miterlimit="3.86874" stroke-linecap="round"/>
<path d="M499.376 568.777L534.26 548.563L569.144 568.777L534.26 588.99L499.376 568.777Z" stroke="url(#paint9_linear)" stroke-width="3" stroke-miterlimit="3.86874" stroke-linecap="round"/>
<path d="M498.078 571.029L532.962 591.242L532.962 631.677L498.078 611.463L498.078 571.029Z" stroke="url(#paint10_linear)" stroke-width="3" stroke-miterlimit="3.86874" stroke-linecap="round"/>
<path d="M535.24 591.242L570.125 571.029L570.125 611.463L535.24 631.677L535.24 591.242Z" stroke="url(#paint11_linear)" stroke-width="3" stroke-miterlimit="3.86874" stroke-linecap="round"/>
<path d="M604.474 625.19L639.358 604.976L674.242 625.19L639.358 645.403L604.474 625.19Z" stroke="url(#paint12_linear)" stroke-width="3" stroke-miterlimit="3.86874" stroke-linecap="round"/>
<path d="M603.176 627.442L638.06 647.655L638.06 688.09L603.176 667.876L603.176 627.442Z" stroke="url(#paint13_linear)" stroke-width="3" stroke-miterlimit="3.86874" stroke-linecap="round"/>
<path d="M640.339 647.655L675.223 627.442L675.223 667.876L640.339 688.09L640.339 647.655Z" stroke="url(#paint14_linear)" stroke-width="3" stroke-miterlimit="3.86874" stroke-linecap="round"/>
<line x1="569.984" y1="569.789" x2="601.668" y2="555.106" stroke="url(#paint15_linear)"/>
<line x1="706.779" y1="569.157" x2="674.323" y2="555.247" stroke="url(#paint16_linear)"/>
<line x1="602.445" y1="626.339" x2="569.988" y2="611.656" stroke="url(#paint17_linear)"/>
<line x1="675.082" y1="626.202" x2="706.766" y2="611.519" stroke="url(#paint18_linear)"/>
<path d="M602.155 214.07L637.04 193.857L671.924 214.07L637.04 234.283L602.155 214.07Z" stroke="url(#paint19_linear)" stroke-width="3" stroke-miterlimit="3.86874" stroke-linecap="round"/>
<path d="M600.858 216.322L635.742 236.535L635.742 276.97L600.858 256.757L600.858 216.322Z" stroke="url(#paint20_linear)" stroke-width="3" stroke-miterlimit="3.86874" stroke-linecap="round"/>
<path d="M638.02 236.535L672.904 216.322L672.904 256.757L638.02 276.97L638.02 236.535Z" stroke="url(#paint21_linear)" stroke-width="3" stroke-miterlimit="3.86874" stroke-linecap="round"/>
<path d="M707.254 270.483L742.138 250.27L777.022 270.483L742.138 290.696L707.254 270.483Z" stroke="url(#paint22_linear)" stroke-width="3" stroke-miterlimit="3.86874" stroke-linecap="round"/>
<path d="M705.956 272.735L740.84 292.948L740.84 333.383L705.956 313.17L705.956 272.735Z" stroke="url(#paint23_linear)" stroke-width="3" stroke-miterlimit="3.86874" stroke-linecap="round"/>
<path d="M743.119 292.948L778.003 272.735L778.003 313.17L743.119 333.383L743.119 292.948Z" stroke="url(#paint24_linear)" stroke-width="3" stroke-miterlimit="3.86874" stroke-linecap="round"/>
<path d="M498.603 270.483L533.487 250.27L568.371 270.483L533.487 290.696L498.603 270.483Z" stroke="url(#paint25_linear)" stroke-width="3" stroke-miterlimit="3.86874" stroke-linecap="round"/>
<path d="M497.305 272.735L532.189 292.948L532.189 333.383L497.305 313.17L497.305 272.735Z" stroke="url(#paint26_linear)" stroke-width="3" stroke-miterlimit="3.86874" stroke-linecap="round"/>
<path d="M534.468 292.948L569.352 272.735L569.352 313.17L534.468 333.383L534.468 292.948Z" stroke="url(#paint27_linear)" stroke-width="3" stroke-miterlimit="3.86874" stroke-linecap="round"/>
<path d="M603.701 326.896L638.585 306.683L673.469 326.896L638.585 347.109L603.701 326.896Z" stroke="url(#paint28_linear)" stroke-width="3" stroke-miterlimit="3.86874" stroke-linecap="round"/>
<path d="M602.403 329.148L637.287 349.361L637.287 389.796L602.403 369.583L602.403 329.148Z" stroke="url(#paint29_linear)" stroke-width="3" stroke-miterlimit="3.86874" stroke-linecap="round"/>
<path d="M639.566 349.361L674.45 329.148L674.45 369.583L639.566 389.796L639.566 349.361Z" stroke="url(#paint30_linear)" stroke-width="3" stroke-miterlimit="3.86874" stroke-linecap="round"/>
<line x1="569.211" y1="271.496" x2="600.895" y2="256.813" stroke="url(#paint31_linear)"/>
<line x1="706.007" y1="270.863" x2="673.55" y2="256.953" stroke="url(#paint32_linear)"/>
<line x1="601.672" y1="328.045" x2="569.215" y2="313.362" stroke="url(#paint33_linear)"/>
<line x1="674.309" y1="327.909" x2="705.993" y2="313.226" stroke="url(#paint34_linear)"/>
<path d="M693.146 378.032L722.924 360.778L752.702 378.032L722.924 395.287L693.146 378.032Z" stroke="url(#paint35_linear)" stroke-width="3" stroke-miterlimit="3.86874" stroke-linecap="round"/>
<path d="M691.848 380.284L721.626 397.539L721.626 432.056L691.848 414.801L691.848 380.284Z" stroke="url(#paint36_linear)" stroke-width="3" stroke-miterlimit="3.86874" stroke-linecap="round"/>
<path d="M723.948 397.539L753.725 380.284L753.725 414.801L723.948 432.056L723.948 397.539Z" stroke="url(#paint37_linear)" stroke-width="3" stroke-miterlimit="3.86874" stroke-linecap="round"/>
<path d="M783.925 426.759L813.703 409.505L843.481 426.759L813.703 444.014L783.925 426.759Z" stroke="url(#paint38_linear)" stroke-width="3" stroke-miterlimit="3.86874" stroke-linecap="round"/>
<path d="M782.628 429.011L812.405 446.266L812.405 480.783L782.628 463.529L782.628 429.011Z" stroke="url(#paint39_linear)" stroke-width="3" stroke-miterlimit="3.86874" stroke-linecap="round"/>
<path d="M814.727 446.266L844.505 429.011L844.505 463.529L814.727 480.783L814.727 446.266Z" stroke="url(#paint40_linear)" stroke-width="3" stroke-miterlimit="3.86874" stroke-linecap="round"/>
<path d="M603.701 426.759L633.479 409.505L663.257 426.759L633.479 444.014L603.701 426.759Z" stroke="url(#paint41_linear)" stroke-width="3" stroke-miterlimit="3.86874" stroke-linecap="round"/>
<path d="M602.403 429.011L632.181 446.266L632.181 480.783L602.403 463.529L602.403 429.011Z" stroke="url(#paint42_linear)" stroke-width="3" stroke-miterlimit="3.86874" stroke-linecap="round"/>
<path d="M634.503 446.266L664.281 429.011L664.281 463.529L634.503 480.783L634.503 446.266Z" stroke="url(#paint43_linear)" stroke-width="3" stroke-miterlimit="3.86874" stroke-linecap="round"/>
<path d="M694.481 475.487L724.259 458.232L754.037 475.487L724.259 492.741L694.481 475.487Z" stroke="url(#paint44_linear)" stroke-width="3" stroke-miterlimit="3.86874" stroke-linecap="round"/>
<path d="M693.183 477.739L722.961 494.993L722.961 529.51L693.183 512.256L693.183 477.739Z" stroke="url(#paint45_linear)" stroke-width="3" stroke-miterlimit="3.86874" stroke-linecap="round"/>
<path d="M725.283 494.993L755.06 477.739L755.06 512.256L725.283 529.51L725.283 494.993Z" stroke="url(#paint46_linear)" stroke-width="3" stroke-miterlimit="3.86874" stroke-linecap="round"/>
<line x1="664.307" y1="427.572" x2="691.675" y2="414.89" stroke="url(#paint47_linear)"/>
<line x1="782.468" y1="427.15" x2="754.433" y2="415.135" stroke="url(#paint48_linear)"/>
<line x1="692.346" y1="476.541" x2="664.312" y2="463.859" stroke="url(#paint49_linear)"/>
<line x1="755.087" y1="476.299" x2="782.454" y2="463.617" stroke="url(#paint50_linear)"/>
<circle cx="637.812" cy="236.015" r="52.9355" fill="url(#paint51_radial)"/>
<circle cx="742.911" cy="292.428" r="52.9355" fill="url(#paint52_radial)"/>
<circle cx="633.949" cy="446.211" r="44.4349" fill="url(#paint53_radial)"/>
<circle cx="814.007" cy="445.439" r="44.4349" fill="url(#paint54_radial)"/>
<g style="mix-blend-mode:overlay">
<rect width="71.5912" height="71.5912" transform="matrix(0.866025 -0.5 2.20305e-08 1 575.604 504.031)" fill="#8DC2D1"/>
<rect width="71.5904" height="71.5904" transform="matrix(0.866025 -0.5 0.866025 0.5 513.008 467.71)" fill="#8DC2D1"/>
<rect width="71.5904" height="71.5904" transform="matrix(0.866025 0.5 -2.20305e-08 1 512.236 468.236)" fill="#8DC2D1"/>
</g>
<g style="mix-blend-mode:overlay">
<rect width="71.5912" height="71.5912" transform="matrix(0.866025 -0.5 2.20305e-08 1 761.844 673.27)" fill="#8DC2D1"/>
<rect width="71.5904" height="71.5904" transform="matrix(0.866025 -0.5 0.866025 0.5 699.249 636.949)" fill="#8DC2D1"/>
<rect width="71.5904" height="71.5904" transform="matrix(0.866025 0.5 -2.20305e-08 1 698.476 637.475)" fill="#8DC2D1"/>
</g>
<g style="mix-blend-mode:overlay">
<rect width="71.5912" height="71.5912" transform="matrix(0.866025 -0.5 2.20305e-08 1 719.341 348.702)" fill="#8DC2D1"/>
<rect width="71.5904" height="71.5904" transform="matrix(0.866025 -0.5 0.866025 0.5 656.746 312.381)" fill="#8DC2D1"/>
<rect width="71.5904" height="71.5904" transform="matrix(0.866025 0.5 -2.20305e-08 1 655.973 312.907)" fill="#8DC2D1"/>
</g>
<rect width="13.7855" height="13.7855" transform="matrix(0.866025 -0.5 2.20305e-08 1 450.066 394.114)" fill="#ACD3DE" fill-opacity="0.9"/>
<rect width="13.7854" height="13.7854" transform="matrix(0.866025 -0.5 0.866025 0.5 438.013 387.12)" fill="#ACD3DE" fill-opacity="0.9"/>
<rect width="13.7854" height="13.7854" transform="matrix(0.866025 0.5 -2.20305e-08 1 437.864 387.221)" fill="#ACD3DE" fill-opacity="0.9"/>
<rect width="13.7855" height="13.7855" transform="matrix(0.866025 -0.5 2.20305e-08 1 858.279 383.206)" fill="#ACD3DE" fill-opacity="0.9"/>
<rect width="13.7854" height="13.7854" transform="matrix(0.866025 -0.5 0.866025 0.5 846.226 376.212)" fill="#ACD3DE" fill-opacity="0.9"/>
<rect width="13.7854" height="13.7854" transform="matrix(0.866025 0.5 -2.20305e-08 1 846.077 376.314)" fill="#ACD3DE" fill-opacity="0.9"/>
<rect width="13.7855" height="13.7855" transform="matrix(0.866025 -0.5 2.20305e-08 1 879.144 650.589)" fill="#ACD3DE" fill-opacity="0.9"/>
<rect width="13.7854" height="13.7854" transform="matrix(0.866025 -0.5 0.866025 0.5 867.091 643.595)" fill="#ACD3DE" fill-opacity="0.9"/>
<rect width="13.7854" height="13.7854" transform="matrix(0.866025 0.5 -2.20305e-08 1 866.942 643.696)" fill="#ACD3DE" fill-opacity="0.9"/>
<rect width="13.7855" height="13.7855" transform="matrix(0.866025 -0.5 2.20305e-08 1 722.27 445.029)" fill="#E9EEEF" fill-opacity="0.8"/>
<rect width="13.7854" height="13.7854" transform="matrix(0.866025 -0.5 0.866025 0.5 710.216 438.035)" fill="#E9EEEF" fill-opacity="0.8"/>
<rect width="13.7854" height="13.7854" transform="matrix(0.866025 0.5 -2.20305e-08 1 710.067 438.136)" fill="#E9EEEF" fill-opacity="0.8"/>
<rect width="13.7855" height="13.7855" transform="matrix(0.866025 -0.5 2.20305e-08 1 808.048 760.323)" fill="#ACD3DE" fill-opacity="0.9"/>
<rect width="13.7854" height="13.7854" transform="matrix(0.866025 -0.5 0.866025 0.5 795.995 753.33)" fill="#ACD3DE" fill-opacity="0.9"/>
<rect width="13.7854" height="13.7854" transform="matrix(0.866025 0.5 -2.20305e-08 1 795.846 753.431)" fill="#ACD3DE" fill-opacity="0.9"/>
<rect width="13.7855" height="13.7855" transform="matrix(0.866025 -0.5 2.20305e-08 1 569.259 686.909)" fill="#ACD3DE" fill-opacity="0.9"/>
<rect width="13.7854" height="13.7854" transform="matrix(0.866025 -0.5 0.866025 0.5 557.206 679.915)" fill="#ACD3DE" fill-opacity="0.9"/>
<rect width="13.7854" height="13.7854" transform="matrix(0.866025 0.5 -2.20305e-08 1 557.057 680.017)" fill="#ACD3DE" fill-opacity="0.9"/>
<rect width="13.7855" height="13.7855" transform="matrix(0.866025 -0.5 2.20305e-08 1 443.296 550.9)" fill="#ACD3DE" fill-opacity="0.9"/>
<rect width="13.7854" height="13.7854" transform="matrix(0.866025 -0.5 0.866025 0.5 431.242 543.906)" fill="#ACD3DE" fill-opacity="0.9"/>
<rect width="13.7854" height="13.7854" transform="matrix(0.866025 0.5 -2.20305e-08 1 431.094 544.007)" fill="#ACD3DE" fill-opacity="0.9"/>
<rect width="13.7855" height="13.7855" transform="matrix(0.866025 -0.5 2.20305e-08 1 719.951 195.421)" fill="#ACD3DE" fill-opacity="0.9"/>
<rect width="13.7854" height="13.7854" transform="matrix(0.866025 -0.5 0.866025 0.5 707.898 188.427)" fill="#ACD3DE" fill-opacity="0.9"/>
<rect width="13.7854" height="13.7854" transform="matrix(0.866025 0.5 -2.20305e-08 1 707.749 188.528)" fill="#ACD3DE" fill-opacity="0.9"/>
<rect width="13.7855" height="13.7855" transform="matrix(0.866025 -0.5 2.20305e-08 1 601.716 292.791)" fill="#ACD3DE" fill-opacity="0.9"/>
<rect width="13.7854" height="13.7854" transform="matrix(0.866025 -0.5 0.866025 0.5 589.662 285.797)" fill="#ACD3DE" fill-opacity="0.9"/>
<rect width="13.7854" height="13.7854" transform="matrix(0.866025 0.5 -2.20305e-08 1 589.514 285.898)" fill="#ACD3DE" fill-opacity="0.9"/>
<rect width="40.0526" height="40.0526" transform="matrix(0.866025 -0.5 2.20305e-08 1 471.749 183.211)" fill="#8DC2D1" fill-opacity="0.82"/>
<rect width="40.0522" height="40.0522" transform="matrix(0.866025 -0.5 0.866025 0.5 436.73 162.891)" fill="#8DC2D1" fill-opacity="0.82"/>
<rect width="40.0522" height="40.0522" transform="matrix(0.866025 0.5 -2.20305e-08 1 436.297 163.185)" fill="#8DC2D1" fill-opacity="0.82"/>
<rect width="40.0526" height="40.0526" transform="matrix(0.866025 -0.5 2.20305e-08 1 833.617 531.765)" fill="#8DC2D1" fill-opacity="0.82"/>
<rect width="40.0522" height="40.0522" transform="matrix(0.866025 -0.5 0.866025 0.5 798.597 511.445)" fill="#8DC2D1" fill-opacity="0.82"/>
<rect width="40.0522" height="40.0522" transform="matrix(0.866025 0.5 -2.20305e-08 1 798.164 511.739)" fill="#8DC2D1" fill-opacity="0.82"/>
<rect width="40.0526" height="40.0526" transform="matrix(0.866025 -0.5 2.20305e-08 1 489.729 704.868)" fill="#8DC2D1" fill-opacity="0.82"/>
<rect width="40.0522" height="40.0522" transform="matrix(0.866025 -0.5 0.866025 0.5 454.709 684.548)" fill="#8DC2D1" fill-opacity="0.82"/>
<rect width="40.0522" height="40.0522" transform="matrix(0.866025 0.5 -2.20305e-08 1 454.277 684.842)" fill="#8DC2D1" fill-opacity="0.82"/>
<rect width="40.0526" height="40.0526" transform="matrix(0.866025 -0.5 2.20305e-08 1 543.824 380.3)" fill="#8DC2D1" fill-opacity="0.82"/>
<rect width="40.0522" height="40.0522" transform="matrix(0.866025 -0.5 0.866025 0.5 508.804 359.98)" fill="#8DC2D1" fill-opacity="0.82"/>
<rect width="40.0522" height="40.0522" transform="matrix(0.866025 0.5 -2.20305e-08 1 508.372 360.274)" fill="#8DC2D1" fill-opacity="0.82"/>
<rect width="40.0526" height="40.0526" transform="matrix(0.866025 -0.5 2.20305e-08 1 832.844 249.7)" fill="#8DC2D1" fill-opacity="0.82"/>
<rect width="40.0522" height="40.0522" transform="matrix(0.866025 -0.5 0.866025 0.5 797.824 229.38)" fill="#8DC2D1" fill-opacity="0.82"/>
<rect width="40.0522" height="40.0522" transform="matrix(0.866025 0.5 -2.20305e-08 1 797.392 229.674)" fill="#8DC2D1" fill-opacity="0.82"/>
<defs>
<radialGradient id="paint0_radial" cx="0" cy="0" r="1" gradientUnits="userSpaceOnUse" gradientTransform="translate(720.5 448.5) rotate(90.0981) scale(225.652)">
<stop stop-color="white"/>
<stop offset="0.0260417" stop-color="white" stop-opacity="0.913514"/>
<stop offset="0.328125" stop-color="#47D3FF" stop-opacity="0.659044"/>
<stop offset="0.500454" stop-color="#38CFFF" stop-opacity="0.637966"/>
<stop offset="0.604167" stop-color="#3BD0FF" stop-opacity="0.641897"/>
<stop offset="1" stop-color="#C4C4C4" stop-opacity="0"/>
</radialGradient>
<radialGradient id="paint1_radial" cx="0" cy="0" r="1" gradientUnits="userSpaceOnUse" gradientTransform="translate(638.585 646.362) rotate(90.6366) scale(34.7773)">
<stop stop-color="white" stop-opacity="0.864583"/>
<stop offset="0.171875" stop-color="#00FFFF"/>
<stop offset="1" stop-color="#C4C4C4" stop-opacity="0"/>
</radialGradient>
<radialGradient id="paint2_radial" cx="0" cy="0" r="1" gradientUnits="userSpaceOnUse" gradientTransform="translate(742.911 589.949) rotate(90.6366) scale(34.7773)">
<stop stop-color="white" stop-opacity="0.864583"/>
<stop offset="0.171875" stop-color="#00FFFF"/>
<stop offset="1" stop-color="#C4C4C4" stop-opacity="0"/>
</radialGradient>
<linearGradient id="paint3_linear" x1="619.073" y1="501.505" x2="657.731" y2="532.329" gradientUnits="userSpaceOnUse">
<stop stop-color="#00FFFF"/>
<stop offset="1" stop-color="#00FFFF" stop-opacity="0.56"/>
</linearGradient>
<linearGradient id="paint4_linear" x1="626.911" y1="532.429" x2="596.921" y2="543.558" gradientUnits="userSpaceOnUse">
<stop stop-color="#00FFFF"/>
<stop offset="1" stop-color="#00FFFF" stop-opacity="0.56"/>
</linearGradient>
<linearGradient id="paint5_linear" x1="632.556" y1="528.416" x2="678.268" y2="529.774" gradientUnits="userSpaceOnUse">
<stop stop-color="#00FFFF"/>
<stop offset="1" stop-color="#00FFFF" stop-opacity="0.5"/>
</linearGradient>
<linearGradient id="paint6_linear" x1="724.171" y1="557.918" x2="762.829" y2="588.742" gradientUnits="userSpaceOnUse">
<stop stop-color="#00FFFF"/>
<stop offset="1" stop-color="#00FFFF" stop-opacity="0.56"/>
</linearGradient>
<linearGradient id="paint7_linear" x1="732.009" y1="588.842" x2="702.019" y2="599.971" gradientUnits="userSpaceOnUse">
<stop stop-color="#00FFFF"/>
<stop offset="1" stop-color="#00FFFF" stop-opacity="0.56"/>
</linearGradient>
<linearGradient id="paint8_linear" x1="737.654" y1="584.829" x2="783.366" y2="586.187" gradientUnits="userSpaceOnUse">
<stop stop-color="#00FFFF"/>
<stop offset="1" stop-color="#00FFFF" stop-opacity="0.5"/>
</linearGradient>
<linearGradient id="paint9_linear" x1="515.52" y1="557.918" x2="554.178" y2="588.742" gradientUnits="userSpaceOnUse">
<stop stop-color="#00FFFF"/>
<stop offset="1" stop-color="#00FFFF" stop-opacity="0.56"/>
</linearGradient>
<linearGradient id="paint10_linear" x1="523.358" y1="588.842" x2="493.368" y2="599.971" gradientUnits="userSpaceOnUse">
<stop stop-color="#00FFFF"/>
<stop offset="1" stop-color="#00FFFF" stop-opacity="0.56"/>
</linearGradient>
<linearGradient id="paint11_linear" x1="529.003" y1="584.829" x2="574.715" y2="586.187" gradientUnits="userSpaceOnUse">
<stop stop-color="#00FFFF"/>
<stop offset="1" stop-color="#00FFFF" stop-opacity="0.5"/>
</linearGradient>
<linearGradient id="paint12_linear" x1="620.618" y1="614.331" x2="659.276" y2="645.155" gradientUnits="userSpaceOnUse">
<stop stop-color="#00FFFF"/>
<stop offset="1" stop-color="#00FFFF" stop-opacity="0.56"/>
</linearGradient>
<linearGradient id="paint13_linear" x1="628.457" y1="645.255" x2="598.466" y2="656.384" gradientUnits="userSpaceOnUse">
<stop stop-color="#00FFFF"/>
<stop offset="1" stop-color="#00FFFF" stop-opacity="0.56"/>
</linearGradient>
<linearGradient id="paint14_linear" x1="634.101" y1="641.242" x2="679.813" y2="642.6" gradientUnits="userSpaceOnUse">
<stop stop-color="#00FFFF"/>
<stop offset="1" stop-color="#00FFFF" stop-opacity="0.5"/>
</linearGradient>
<linearGradient id="paint15_linear" x1="573.037" y1="570.261" x2="605.512" y2="555.318" gradientUnits="userSpaceOnUse">
<stop stop-color="#00FFFF"/>
<stop offset="1" stop-color="#00FFFF" stop-opacity="0.34"/>
</linearGradient>
<linearGradient id="paint16_linear" x1="705.064" y1="566.559" x2="671.877" y2="552.229" gradientUnits="userSpaceOnUse">
<stop stop-color="#00FFFF"/>
<stop offset="1" stop-color="#00FFFF" stop-opacity="0.34"/>
</linearGradient>
<linearGradient id="paint17_linear" x1="600.761" y1="623.698" x2="567.576" y2="608.575" gradientUnits="userSpaceOnUse">
<stop stop-color="#00FFFF"/>
<stop offset="1" stop-color="#00FFFF" stop-opacity="0.34"/>
</linearGradient>
<linearGradient id="paint18_linear" x1="678.135" y1="626.674" x2="710.61" y2="611.731" gradientUnits="userSpaceOnUse">
<stop stop-color="#00FFFF"/>
<stop offset="1" stop-color="#00FFFF" stop-opacity="0.34"/>
</linearGradient>
<linearGradient id="paint19_linear" x1="618.3" y1="203.211" x2="656.958" y2="234.036" gradientUnits="userSpaceOnUse">
<stop stop-color="#00FFFF"/>
<stop offset="1" stop-color="#00FFFF" stop-opacity="0.56"/>
</linearGradient>
<linearGradient id="paint20_linear" x1="626.138" y1="234.135" x2="596.148" y2="245.265" gradientUnits="userSpaceOnUse">
<stop stop-color="#00FFFF"/>
<stop offset="1" stop-color="#00FFFF" stop-opacity="0.56"/>
</linearGradient>
<linearGradient id="paint21_linear" x1="631.783" y1="230.122" x2="677.495" y2="231.48" gradientUnits="userSpaceOnUse">
<stop stop-color="#00FFFF"/>
<stop offset="1" stop-color="#00FFFF" stop-opacity="0.5"/>
</linearGradient>
<linearGradient id="paint22_linear" x1="723.398" y1="259.624" x2="762.056" y2="290.449" gradientUnits="userSpaceOnUse">
<stop stop-color="#00FFFF"/>
<stop offset="1" stop-color="#00FFFF" stop-opacity="0.56"/>
</linearGradient>
<linearGradient id="paint23_linear" x1="731.236" y1="290.548" x2="701.246" y2="301.678" gradientUnits="userSpaceOnUse">
<stop stop-color="#00FFFF"/>
<stop offset="1" stop-color="#00FFFF" stop-opacity="0.56"/>
</linearGradient>
<linearGradient id="paint24_linear" x1="736.881" y1="286.535" x2="782.593" y2="287.893" gradientUnits="userSpaceOnUse">
<stop stop-color="#00FFFF"/>
<stop offset="1" stop-color="#00FFFF" stop-opacity="0.5"/>
</linearGradient>
<linearGradient id="paint25_linear" x1="514.747" y1="259.624" x2="553.405" y2="290.449" gradientUnits="userSpaceOnUse">
<stop stop-color="#00FFFF"/>
<stop offset="1" stop-color="#00FFFF" stop-opacity="0.56"/>
</linearGradient>
<linearGradient id="paint26_linear" x1="522.585" y1="290.548" x2="492.595" y2="301.678" gradientUnits="userSpaceOnUse">
<stop stop-color="#00FFFF"/>
<stop offset="1" stop-color="#00FFFF" stop-opacity="0.56"/>
</linearGradient>
<linearGradient id="paint27_linear" x1="528.23" y1="286.535" x2="573.942" y2="287.893" gradientUnits="userSpaceOnUse">
<stop stop-color="#00FFFF"/>
<stop offset="1" stop-color="#00FFFF" stop-opacity="0.5"/>
</linearGradient>
<linearGradient id="paint28_linear" x1="619.845" y1="316.038" x2="658.504" y2="346.862" gradientUnits="userSpaceOnUse">
<stop stop-color="#00FFFF"/>
<stop offset="1" stop-color="#00FFFF" stop-opacity="0.56"/>
</linearGradient>
<linearGradient id="paint29_linear" x1="627.684" y1="346.961" x2="597.693" y2="358.091" gradientUnits="userSpaceOnUse">
<stop stop-color="#00FFFF"/>
<stop offset="1" stop-color="#00FFFF" stop-opacity="0.56"/>
</linearGradient>
<linearGradient id="paint30_linear" x1="633.329" y1="342.948" x2="679.04" y2="344.306" gradientUnits="userSpaceOnUse">
<stop stop-color="#00FFFF"/>
<stop offset="1" stop-color="#00FFFF" stop-opacity="0.5"/>
</linearGradient>
<linearGradient id="paint31_linear" x1="572.264" y1="271.968" x2="604.739" y2="257.024" gradientUnits="userSpaceOnUse">
<stop stop-color="#00FFFF"/>
<stop offset="1" stop-color="#00FFFF" stop-opacity="0.34"/>
</linearGradient>
<linearGradient id="paint32_linear" x1="704.291" y1="268.265" x2="671.104" y2="253.935" gradientUnits="userSpaceOnUse">
<stop stop-color="#00FFFF"/>
<stop offset="1" stop-color="#00FFFF" stop-opacity="0.34"/>
</linearGradient>
<linearGradient id="paint33_linear" x1="599.988" y1="325.404" x2="566.803" y2="310.282" gradientUnits="userSpaceOnUse">
<stop stop-color="#00FFFF"/>
<stop offset="1" stop-color="#00FFFF" stop-opacity="0.34"/>
</linearGradient>
<linearGradient id="paint34_linear" x1="677.362" y1="328.381" x2="709.838" y2="313.437" gradientUnits="userSpaceOnUse">
<stop stop-color="#00FFFF"/>
<stop offset="1" stop-color="#00FFFF" stop-opacity="0.34"/>
</linearGradient>
<linearGradient id="paint35_linear" x1="706.737" y1="368.653" x2="740.128" y2="395.277" gradientUnits="userSpaceOnUse">
<stop stop-color="#00FFFF"/>
<stop offset="1" stop-color="#00FFFF" stop-opacity="0.56"/>
</linearGradient>
<linearGradient id="paint36_linear" x1="713.507" y1="395.363" x2="687.603" y2="404.977" gradientUnits="userSpaceOnUse">
<stop stop-color="#00FFFF"/>
<stop offset="1" stop-color="#00FFFF" stop-opacity="0.56"/>
</linearGradient>
<linearGradient id="paint37_linear" x1="718.383" y1="391.897" x2="757.867" y2="393.07" gradientUnits="userSpaceOnUse">
<stop stop-color="#00FFFF"/>
<stop offset="1" stop-color="#00FFFF" stop-opacity="0.5"/>
</linearGradient>
<linearGradient id="paint38_linear" x1="797.516" y1="417.38" x2="830.908" y2="444.005" gradientUnits="userSpaceOnUse">
<stop stop-color="#00FFFF"/>
<stop offset="1" stop-color="#00FFFF" stop-opacity="0.56"/>
</linearGradient>
<linearGradient id="paint39_linear" x1="804.287" y1="444.091" x2="778.383" y2="453.704" gradientUnits="userSpaceOnUse">
<stop stop-color="#00FFFF"/>
<stop offset="1" stop-color="#00FFFF" stop-opacity="0.56"/>
</linearGradient>
<linearGradient id="paint40_linear" x1="809.163" y1="440.624" x2="848.647" y2="441.797" gradientUnits="userSpaceOnUse">
<stop stop-color="#00FFFF"/>
<stop offset="1" stop-color="#00FFFF" stop-opacity="0.5"/>
</linearGradient>
<linearGradient id="paint41_linear" x1="617.292" y1="417.38" x2="650.684" y2="444.005" gradientUnits="userSpaceOnUse">
<stop stop-color="#00FFFF"/>
<stop offset="1" stop-color="#00FFFF" stop-opacity="0.56"/>
</linearGradient>
<linearGradient id="paint42_linear" x1="624.063" y1="444.091" x2="598.158" y2="453.704" gradientUnits="userSpaceOnUse">
<stop stop-color="#00FFFF"/>
<stop offset="1" stop-color="#00FFFF" stop-opacity="0.56"/>
</linearGradient>
<linearGradient id="paint43_linear" x1="628.939" y1="440.624" x2="668.422" y2="441.797" gradientUnits="userSpaceOnUse">
<stop stop-color="#00FFFF"/>
<stop offset="1" stop-color="#00FFFF" stop-opacity="0.5"/>
</linearGradient>
<linearGradient id="paint44_linear" x1="708.072" y1="466.107" x2="741.463" y2="492.732" gradientUnits="userSpaceOnUse">
<stop stop-color="#00FFFF"/>
<stop offset="1" stop-color="#00FFFF" stop-opacity="0.56"/>
</linearGradient>
<linearGradient id="paint45_linear" x1="714.842" y1="492.818" x2="688.938" y2="502.431" gradientUnits="userSpaceOnUse">
<stop stop-color="#00FFFF"/>
<stop offset="1" stop-color="#00FFFF" stop-opacity="0.56"/>
</linearGradient>
<linearGradient id="paint46_linear" x1="719.718" y1="489.352" x2="759.202" y2="490.525" gradientUnits="userSpaceOnUse">
<stop stop-color="#00FFFF"/>
<stop offset="1" stop-color="#00FFFF" stop-opacity="0.5"/>
</linearGradient>
<linearGradient id="paint47_linear" x1="667.042" y1="428.192" x2="695.089" y2="415.274" gradientUnits="userSpaceOnUse">
<stop stop-color="#00FFFF"/>
<stop offset="1" stop-color="#00FFFF" stop-opacity="0.34"/>
</linearGradient>
<linearGradient id="paint48_linear" x1="781.078" y1="424.692" x2="752.407" y2="412.325" gradientUnits="userSpaceOnUse">
<stop stop-color="#00FFFF"/>
<stop offset="1" stop-color="#00FFFF" stop-opacity="0.34"/>
</linearGradient>
<linearGradient id="paint49_linear" x1="690.988" y1="474.047" x2="662.319" y2="460.996" gradientUnits="userSpaceOnUse">
<stop stop-color="#00FFFF"/>
<stop offset="1" stop-color="#00FFFF" stop-opacity="0.34"/>
</linearGradient>
<linearGradient id="paint50_linear" x1="757.822" y1="476.919" x2="785.868" y2="464.001" gradientUnits="userSpaceOnUse">
<stop stop-color="#00FFFF"/>
<stop offset="1" stop-color="#00FFFF" stop-opacity="0.34"/>
</linearGradient>
<radialGradient id="paint51_radial" cx="0" cy="0" r="1" gradientUnits="userSpaceOnUse" gradientTransform="translate(637.812 236.015) rotate(90.6366) scale(34.7773)">
<stop stop-color="white" stop-opacity="0.864583"/>
<stop offset="0.171875" stop-color="#00FFFF"/>
<stop offset="1" stop-color="#C4C4C4" stop-opacity="0"/>
</radialGradient>
<radialGradient id="paint52_radial" cx="0" cy="0" r="1" gradientUnits="userSpaceOnUse" gradientTransform="translate(742.911 292.428) rotate(90.6366) scale(34.7773)">
<stop stop-color="white" stop-opacity="0.864583"/>
<stop offset="0.171875" stop-color="#00FFFF"/>
<stop offset="1" stop-color="#C4C4C4" stop-opacity="0"/>
</radialGradient>
<radialGradient id="paint53_radial" cx="0" cy="0" r="1" gradientUnits="userSpaceOnUse" gradientTransform="translate(633.949 446.211) rotate(90.6366) scale(29.1926)">
<stop stop-color="white" stop-opacity="0.864583"/>
<stop offset="0.171875" stop-color="#00FFFF"/>
<stop offset="1" stop-color="#C4C4C4" stop-opacity="0"/>
</radialGradient>
<radialGradient id="paint54_radial" cx="0" cy="0" r="1" gradientUnits="userSpaceOnUse" gradientTransform="translate(814.007 445.439) rotate(90.6366) scale(29.1926)">
<stop stop-color="white" stop-opacity="0.864583"/>
<stop offset="0.171875" stop-color="#00FFFF"/>
<stop offset="1" stop-color="#C4C4C4" stop-opacity="0"/>
</radialGradient>
</defs>
</svg>
