<svg width="653" height="653" viewBox="0 0 653 653" fill="none" xmlns="http://www.w3.org/2000/svg">
<circle opacity="0.85" cx="326.5" cy="326.5" r="326.5" fill="url(#paint0_radial)"/>
<circle cx="244.585" cy="524.362" r="52.9355" fill="url(#paint1_radial)"/>
<circle cx="348.911" cy="467.949" r="52.9355" fill="url(#paint2_radial)"/>
<path d="M208.928 390.364L243.812 370.15L278.697 390.364L243.812 410.577L208.928 390.364Z" stroke="url(#paint3_linear)" stroke-width="3" stroke-miterlimit="3.86874" stroke-linecap="round"/>
<path d="M207.63 392.616L242.515 412.829L242.515 453.264L207.63 433.05L207.63 392.616Z" stroke="url(#paint4_linear)" stroke-width="3" stroke-miterlimit="3.86874" stroke-linecap="round"/>
<path d="M244.793 412.829L279.677 392.616L279.677 433.05L244.793 453.264L244.793 412.829Z" stroke="url(#paint5_linear)" stroke-width="3" stroke-miterlimit="3.86874" stroke-linecap="round"/>
<path d="M314.027 446.777L348.911 426.563L383.795 446.777L348.911 466.99L314.027 446.777Z" stroke="url(#paint6_linear)" stroke-width="3" stroke-miterlimit="3.86874" stroke-linecap="round"/>
<path d="M312.729 449.029L347.613 469.242L347.613 509.677L312.729 489.463L312.729 449.029Z" stroke="url(#paint7_linear)" stroke-width="3" stroke-miterlimit="3.86874" stroke-linecap="round"/>
<path d="M349.891 469.242L384.776 449.029L384.776 489.463L349.891 509.677L349.891 469.242Z" stroke="url(#paint8_linear)" stroke-width="3" stroke-miterlimit="3.86874" stroke-linecap="round"/>
<path d="M105.376 446.777L140.26 426.563L175.144 446.777L140.26 466.99L105.376 446.777Z" stroke="url(#paint9_linear)" stroke-width="3" stroke-miterlimit="3.86874" stroke-linecap="round"/>
<path d="M104.078 449.029L138.962 469.242L138.962 509.677L104.078 489.463L104.078 449.029Z" stroke="url(#paint10_linear)" stroke-width="3" stroke-miterlimit="3.86874" stroke-linecap="round"/>
<path d="M141.24 469.242L176.125 449.029L176.125 489.463L141.24 509.677L141.24 469.242Z" stroke="url(#paint11_linear)" stroke-width="3" stroke-miterlimit="3.86874" stroke-linecap="round"/>
<path d="M210.474 503.19L245.358 482.976L280.242 503.19L245.358 523.403L210.474 503.19Z" stroke="url(#paint12_linear)" stroke-width="3" stroke-miterlimit="3.86874" stroke-linecap="round"/>
<path d="M209.176 505.442L244.06 525.655L244.06 566.09L209.176 545.876L209.176 505.442Z" stroke="url(#paint13_linear)" stroke-width="3" stroke-miterlimit="3.86874" stroke-linecap="round"/>
<path d="M246.339 525.655L281.223 505.442L281.223 545.876L246.339 566.09L246.339 525.655Z" stroke="url(#paint14_linear)" stroke-width="3" stroke-miterlimit="3.86874" stroke-linecap="round"/>
<line x1="175.984" y1="447.789" x2="207.668" y2="433.106" stroke="url(#paint15_linear)"/>
<line x1="312.779" y1="447.157" x2="280.323" y2="433.247" stroke="url(#paint16_linear)"/>
<line x1="208.445" y1="504.339" x2="175.988" y2="489.656" stroke="url(#paint17_linear)"/>
<line x1="281.082" y1="504.202" x2="312.766" y2="489.519" stroke="url(#paint18_linear)"/>
<path d="M208.155 92.0701L243.04 71.8569L277.924 92.0701L243.04 112.283L208.155 92.0701Z" stroke="url(#paint19_linear)" stroke-width="3" stroke-miterlimit="3.86874" stroke-linecap="round"/>
<path d="M206.858 94.3222L241.742 114.535L241.742 154.97L206.858 134.757L206.858 94.3222Z" stroke="url(#paint20_linear)" stroke-width="3" stroke-miterlimit="3.86874" stroke-linecap="round"/>
<path d="M244.02 114.535L278.904 94.3222L278.904 134.757L244.02 154.97L244.02 114.535Z" stroke="url(#paint21_linear)" stroke-width="3" stroke-miterlimit="3.86874" stroke-linecap="round"/>
<path d="M313.254 148.483L348.138 128.27L383.022 148.483L348.138 168.696L313.254 148.483Z" stroke="url(#paint22_linear)" stroke-width="3" stroke-miterlimit="3.86874" stroke-linecap="round"/>
<path d="M311.956 150.735L346.84 170.948L346.84 211.383L311.956 191.17L311.956 150.735Z" stroke="url(#paint23_linear)" stroke-width="3" stroke-miterlimit="3.86874" stroke-linecap="round"/>
<path d="M349.119 170.948L384.003 150.735L384.003 191.17L349.119 211.383L349.119 170.948Z" stroke="url(#paint24_linear)" stroke-width="3" stroke-miterlimit="3.86874" stroke-linecap="round"/>
<path d="M104.603 148.483L139.487 128.27L174.371 148.483L139.487 168.696L104.603 148.483Z" stroke="url(#paint25_linear)" stroke-width="3" stroke-miterlimit="3.86874" stroke-linecap="round"/>
<path d="M103.305 150.735L138.189 170.948L138.189 211.383L103.305 191.17L103.305 150.735Z" stroke="url(#paint26_linear)" stroke-width="3" stroke-miterlimit="3.86874" stroke-linecap="round"/>
<path d="M140.468 170.948L175.352 150.735L175.352 191.17L140.468 211.383L140.468 170.948Z" stroke="url(#paint27_linear)" stroke-width="3" stroke-miterlimit="3.86874" stroke-linecap="round"/>
<path d="M209.701 204.896L244.585 184.683L279.469 204.896L244.585 225.109L209.701 204.896Z" stroke="url(#paint28_linear)" stroke-width="3" stroke-miterlimit="3.86874" stroke-linecap="round"/>
<path d="M208.403 207.148L243.287 227.361L243.287 267.796L208.403 247.583L208.403 207.148Z" stroke="url(#paint29_linear)" stroke-width="3" stroke-miterlimit="3.86874" stroke-linecap="round"/>
<path d="M245.566 227.361L280.45 207.148L280.45 247.583L245.566 267.796L245.566 227.361Z" stroke="url(#paint30_linear)" stroke-width="3" stroke-miterlimit="3.86874" stroke-linecap="round"/>
<line x1="175.211" y1="149.496" x2="206.895" y2="134.813" stroke="url(#paint31_linear)"/>
<line x1="312.007" y1="148.863" x2="279.55" y2="134.953" stroke="url(#paint32_linear)"/>
<line x1="207.672" y1="206.045" x2="175.215" y2="191.362" stroke="url(#paint33_linear)"/>
<line x1="280.309" y1="205.909" x2="311.993" y2="191.226" stroke="url(#paint34_linear)"/>
<path d="M299.146 256.032L328.924 238.778L358.702 256.032L328.924 273.287L299.146 256.032Z" stroke="url(#paint35_linear)" stroke-width="3" stroke-miterlimit="3.86874" stroke-linecap="round"/>
<path d="M297.848 258.284L327.626 275.539L327.626 310.056L297.848 292.801L297.848 258.284Z" stroke="url(#paint36_linear)" stroke-width="3" stroke-miterlimit="3.86874" stroke-linecap="round"/>
<path d="M329.948 275.539L359.725 258.284L359.725 292.801L329.948 310.056L329.948 275.539Z" stroke="url(#paint37_linear)" stroke-width="3" stroke-miterlimit="3.86874" stroke-linecap="round"/>
<path d="M389.925 304.759L419.703 287.505L449.481 304.759L419.703 322.014L389.925 304.759Z" stroke="url(#paint38_linear)" stroke-width="3" stroke-miterlimit="3.86874" stroke-linecap="round"/>
<path d="M388.628 307.011L418.405 324.266L418.405 358.783L388.628 341.529L388.628 307.011Z" stroke="url(#paint39_linear)" stroke-width="3" stroke-miterlimit="3.86874" stroke-linecap="round"/>
<path d="M420.727 324.266L450.505 307.011L450.505 341.529L420.727 358.783L420.727 324.266Z" stroke="url(#paint40_linear)" stroke-width="3" stroke-miterlimit="3.86874" stroke-linecap="round"/>
<path d="M209.701 304.759L239.479 287.505L269.257 304.759L239.479 322.014L209.701 304.759Z" stroke="url(#paint41_linear)" stroke-width="3" stroke-miterlimit="3.86874" stroke-linecap="round"/>
<path d="M208.403 307.011L238.181 324.266L238.181 358.783L208.403 341.529L208.403 307.011Z" stroke="url(#paint42_linear)" stroke-width="3" stroke-miterlimit="3.86874" stroke-linecap="round"/>
<path d="M240.503 324.266L270.281 307.011L270.281 341.529L240.503 358.783L240.503 324.266Z" stroke="url(#paint43_linear)" stroke-width="3" stroke-miterlimit="3.86874" stroke-linecap="round"/>
<path d="M300.481 353.487L330.259 336.232L360.037 353.487L330.259 370.741L300.481 353.487Z" stroke="url(#paint44_linear)" stroke-width="3" stroke-miterlimit="3.86874" stroke-linecap="round"/>
<path d="M299.183 355.739L328.961 372.993L328.961 407.51L299.183 390.256L299.183 355.739Z" stroke="url(#paint45_linear)" stroke-width="3" stroke-miterlimit="3.86874" stroke-linecap="round"/>
<path d="M331.283 372.993L361.06 355.739L361.06 390.256L331.283 407.51L331.283 372.993Z" stroke="url(#paint46_linear)" stroke-width="3" stroke-miterlimit="3.86874" stroke-linecap="round"/>
<line x1="270.307" y1="305.572" x2="297.675" y2="292.89" stroke="url(#paint47_linear)"/>
<line x1="388.468" y1="305.15" x2="360.433" y2="293.135" stroke="url(#paint48_linear)"/>
<line x1="298.346" y1="354.541" x2="270.312" y2="341.859" stroke="url(#paint49_linear)"/>
<line x1="361.087" y1="354.299" x2="388.454" y2="341.617" stroke="url(#paint50_linear)"/>
<circle cx="243.812" cy="114.015" r="52.9355" fill="url(#paint51_radial)"/>
<circle cx="348.911" cy="170.428" r="52.9355" fill="url(#paint52_radial)"/>
<circle cx="239.949" cy="324.211" r="44.4349" fill="url(#paint53_radial)"/>
<circle cx="420.007" cy="323.439" r="44.4349" fill="url(#paint54_radial)"/>
<g style="mix-blend-mode:overlay">
<rect width="71.5912" height="71.5912" transform="matrix(0.866025 -0.5 2.20305e-08 1 181.604 382.031)" fill="#8DC2D1"/>
<rect width="71.5904" height="71.5904" transform="matrix(0.866025 -0.5 0.866025 0.5 119.008 345.71)" fill="#8DC2D1"/>
<rect width="71.5904" height="71.5904" transform="matrix(0.866025 0.5 -2.20305e-08 1 118.236 346.236)" fill="#8DC2D1"/>
</g>
<g style="mix-blend-mode:overlay">
<rect width="71.5912" height="71.5912" transform="matrix(0.866025 -0.5 2.20305e-08 1 367.844 551.27)" fill="#8DC2D1"/>
<rect width="71.5904" height="71.5904" transform="matrix(0.866025 -0.5 0.866025 0.5 305.249 514.949)" fill="#8DC2D1"/>
<rect width="71.5904" height="71.5904" transform="matrix(0.866025 0.5 -2.20305e-08 1 304.476 515.475)" fill="#8DC2D1"/>
</g>
<g style="mix-blend-mode:overlay">
<rect width="71.5912" height="71.5912" transform="matrix(0.866025 -0.5 2.20305e-08 1 325.341 226.702)" fill="#8DC2D1"/>
<rect width="71.5904" height="71.5904" transform="matrix(0.866025 -0.5 0.866025 0.5 262.746 190.381)" fill="#8DC2D1"/>
<rect width="71.5904" height="71.5904" transform="matrix(0.866025 0.5 -2.20305e-08 1 261.973 190.907)" fill="#8DC2D1"/>
</g>
<rect width="13.7855" height="13.7855" transform="matrix(0.866025 -0.5 2.20305e-08 1 56.0661 272.114)" fill="#ACD3DE" fill-opacity="0.9"/>
<rect width="13.7854" height="13.7854" transform="matrix(0.866025 -0.5 0.866025 0.5 44.0128 265.12)" fill="#ACD3DE" fill-opacity="0.9"/>
<rect width="13.7854" height="13.7854" transform="matrix(0.866025 0.5 -2.20305e-08 1 43.864 265.221)" fill="#ACD3DE" fill-opacity="0.9"/>
<rect width="13.7855" height="13.7855" transform="matrix(0.866025 -0.5 2.20305e-08 1 464.279 261.206)" fill="#ACD3DE" fill-opacity="0.9"/>
<rect width="13.7854" height="13.7854" transform="matrix(0.866025 -0.5 0.866025 0.5 452.226 254.212)" fill="#ACD3DE" fill-opacity="0.9"/>
<rect width="13.7854" height="13.7854" transform="matrix(0.866025 0.5 -2.20305e-08 1 452.077 254.314)" fill="#ACD3DE" fill-opacity="0.9"/>
<rect width="13.7855" height="13.7855" transform="matrix(0.866025 -0.5 2.20305e-08 1 485.144 528.589)" fill="#ACD3DE" fill-opacity="0.9"/>
<rect width="13.7854" height="13.7854" transform="matrix(0.866025 -0.5 0.866025 0.5 473.091 521.595)" fill="#ACD3DE" fill-opacity="0.9"/>
<rect width="13.7854" height="13.7854" transform="matrix(0.866025 0.5 -2.20305e-08 1 472.942 521.696)" fill="#ACD3DE" fill-opacity="0.9"/>
<rect width="13.7855" height="13.7855" transform="matrix(0.866025 -0.5 2.20305e-08 1 328.27 323.029)" fill="#E9EEEF" fill-opacity="0.8"/>
<rect width="13.7854" height="13.7854" transform="matrix(0.866025 -0.5 0.866025 0.5 316.216 316.035)" fill="#E9EEEF" fill-opacity="0.8"/>
<rect width="13.7854" height="13.7854" transform="matrix(0.866025 0.5 -2.20305e-08 1 316.067 316.136)" fill="#E9EEEF" fill-opacity="0.8"/>
<rect width="13.7855" height="13.7855" transform="matrix(0.866025 -0.5 2.20305e-08 1 414.048 638.323)" fill="#ACD3DE" fill-opacity="0.9"/>
<rect width="13.7854" height="13.7854" transform="matrix(0.866025 -0.5 0.866025 0.5 401.995 631.33)" fill="#ACD3DE" fill-opacity="0.9"/>
<rect width="13.7854" height="13.7854" transform="matrix(0.866025 0.5 -2.20305e-08 1 401.846 631.431)" fill="#ACD3DE" fill-opacity="0.9"/>
<rect width="13.7855" height="13.7855" transform="matrix(0.866025 -0.5 2.20305e-08 1 175.259 564.909)" fill="#ACD3DE" fill-opacity="0.9"/>
<rect width="13.7854" height="13.7854" transform="matrix(0.866025 -0.5 0.866025 0.5 163.206 557.915)" fill="#ACD3DE" fill-opacity="0.9"/>
<rect width="13.7854" height="13.7854" transform="matrix(0.866025 0.5 -2.20305e-08 1 163.057 558.017)" fill="#ACD3DE" fill-opacity="0.9"/>
<rect width="13.7855" height="13.7855" transform="matrix(0.866025 -0.5 2.20305e-08 1 49.2955 428.9)" fill="#ACD3DE" fill-opacity="0.9"/>
<rect width="13.7854" height="13.7854" transform="matrix(0.866025 -0.5 0.866025 0.5 37.2423 421.906)" fill="#ACD3DE" fill-opacity="0.9"/>
<rect width="13.7854" height="13.7854" transform="matrix(0.866025 0.5 -2.20305e-08 1 37.0935 422.007)" fill="#ACD3DE" fill-opacity="0.9"/>
<rect width="13.7855" height="13.7855" transform="matrix(0.866025 -0.5 2.20305e-08 1 325.951 73.4205)" fill="#ACD3DE" fill-opacity="0.9"/>
<rect width="13.7854" height="13.7854" transform="matrix(0.866025 -0.5 0.866025 0.5 313.898 66.4265)" fill="#ACD3DE" fill-opacity="0.9"/>
<rect width="13.7854" height="13.7854" transform="matrix(0.866025 0.5 -2.20305e-08 1 313.749 66.5277)" fill="#ACD3DE" fill-opacity="0.9"/>
<rect width="13.7855" height="13.7855" transform="matrix(0.866025 -0.5 2.20305e-08 1 207.716 170.791)" fill="#ACD3DE" fill-opacity="0.9"/>
<rect width="13.7854" height="13.7854" transform="matrix(0.866025 -0.5 0.866025 0.5 195.662 163.797)" fill="#ACD3DE" fill-opacity="0.9"/>
<rect width="13.7854" height="13.7854" transform="matrix(0.866025 0.5 -2.20305e-08 1 195.514 163.898)" fill="#ACD3DE" fill-opacity="0.9"/>
<rect width="40.0526" height="40.0526" transform="matrix(0.866025 -0.5 2.20305e-08 1 77.7495 61.2115)" fill="#8DC2D1" fill-opacity="0.82"/>
<rect width="40.0522" height="40.0522" transform="matrix(0.866025 -0.5 0.866025 0.5 42.7298 40.8912)" fill="#8DC2D1" fill-opacity="0.82"/>
<rect width="40.0522" height="40.0522" transform="matrix(0.866025 0.5 -2.20305e-08 1 42.2975 41.1852)" fill="#8DC2D1" fill-opacity="0.82"/>
<rect width="40.0526" height="40.0526" transform="matrix(0.866025 -0.5 2.20305e-08 1 439.617 409.765)" fill="#8DC2D1" fill-opacity="0.82"/>
<rect width="40.0522" height="40.0522" transform="matrix(0.866025 -0.5 0.866025 0.5 404.597 389.445)" fill="#8DC2D1" fill-opacity="0.82"/>
<rect width="40.0522" height="40.0522" transform="matrix(0.866025 0.5 -2.20305e-08 1 404.164 389.739)" fill="#8DC2D1" fill-opacity="0.82"/>
<rect width="40.0526" height="40.0526" transform="matrix(0.866025 -0.5 2.20305e-08 1 95.729 582.868)" fill="#8DC2D1" fill-opacity="0.82"/>
<rect width="40.0522" height="40.0522" transform="matrix(0.866025 -0.5 0.866025 0.5 60.7093 562.548)" fill="#8DC2D1" fill-opacity="0.82"/>
<rect width="40.0522" height="40.0522" transform="matrix(0.866025 0.5 -2.20305e-08 1 60.2769 562.842)" fill="#8DC2D1" fill-opacity="0.82"/>
<rect width="40.0526" height="40.0526" transform="matrix(0.866025 -0.5 2.20305e-08 1 149.824 258.3)" fill="#8DC2D1" fill-opacity="0.82"/>
<rect width="40.0522" height="40.0522" transform="matrix(0.866025 -0.5 0.866025 0.5 114.804 237.98)" fill="#8DC2D1" fill-opacity="0.82"/>
<rect width="40.0522" height="40.0522" transform="matrix(0.866025 0.5 -2.20305e-08 1 114.372 238.274)" fill="#8DC2D1" fill-opacity="0.82"/>
<rect width="40.0526" height="40.0526" transform="matrix(0.866025 -0.5 2.20305e-08 1 438.844 127.7)" fill="#8DC2D1" fill-opacity="0.82"/>
<rect width="40.0522" height="40.0522" transform="matrix(0.866025 -0.5 0.866025 0.5 403.824 107.38)" fill="#8DC2D1" fill-opacity="0.82"/>
<rect width="40.0522" height="40.0522" transform="matrix(0.866025 0.5 -2.20305e-08 1 403.392 107.674)" fill="#8DC2D1" fill-opacity="0.82"/>
<defs>
<radialGradient id="paint0_radial" cx="0" cy="0" r="1" gradientUnits="userSpaceOnUse" gradientTransform="translate(326.5 326.5) rotate(90.0981) scale(225.652)">
<stop stop-color="white"/>
<stop offset="0.0260417" stop-color="white" stop-opacity="0.913514"/>
<stop offset="0.328125" stop-color="#47D3FF" stop-opacity="0.659044"/>
<stop offset="0.500454" stop-color="#38CFFF" stop-opacity="0.637966"/>
<stop offset="0.604167" stop-color="#3BD0FF" stop-opacity="0.641897"/>
<stop offset="1" stop-color="#C4C4C4" stop-opacity="0"/>
</radialGradient>
<radialGradient id="paint1_radial" cx="0" cy="0" r="1" gradientUnits="userSpaceOnUse" gradientTransform="translate(244.585 524.362) rotate(90.6366) scale(34.7773)">
<stop stop-color="white" stop-opacity="0.864583"/>
<stop offset="0.171875" stop-color="#00FFFF"/>
<stop offset="1" stop-color="#C4C4C4" stop-opacity="0"/>
</radialGradient>
<radialGradient id="paint2_radial" cx="0" cy="0" r="1" gradientUnits="userSpaceOnUse" gradientTransform="translate(348.911 467.949) rotate(90.6366) scale(34.7773)">
<stop stop-color="white" stop-opacity="0.864583"/>
<stop offset="0.171875" stop-color="#00FFFF"/>
<stop offset="1" stop-color="#C4C4C4" stop-opacity="0"/>
</radialGradient>
<linearGradient id="paint3_linear" x1="225.073" y1="379.505" x2="263.731" y2="410.329" gradientUnits="userSpaceOnUse">
<stop stop-color="#00FFFF"/>
<stop offset="1" stop-color="#00FFFF" stop-opacity="0.56"/>
</linearGradient>
<linearGradient id="paint4_linear" x1="232.911" y1="410.429" x2="202.921" y2="421.558" gradientUnits="userSpaceOnUse">
<stop stop-color="#00FFFF"/>
<stop offset="1" stop-color="#00FFFF" stop-opacity="0.56"/>
</linearGradient>
<linearGradient id="paint5_linear" x1="238.556" y1="406.416" x2="284.268" y2="407.774" gradientUnits="userSpaceOnUse">
<stop stop-color="#00FFFF"/>
<stop offset="1" stop-color="#00FFFF" stop-opacity="0.5"/>
</linearGradient>
<linearGradient id="paint6_linear" x1="330.171" y1="435.918" x2="368.829" y2="466.742" gradientUnits="userSpaceOnUse">
<stop stop-color="#00FFFF"/>
<stop offset="1" stop-color="#00FFFF" stop-opacity="0.56"/>
</linearGradient>
<linearGradient id="paint7_linear" x1="338.009" y1="466.842" x2="308.019" y2="477.971" gradientUnits="userSpaceOnUse">
<stop stop-color="#00FFFF"/>
<stop offset="1" stop-color="#00FFFF" stop-opacity="0.56"/>
</linearGradient>
<linearGradient id="paint8_linear" x1="343.654" y1="462.829" x2="389.366" y2="464.187" gradientUnits="userSpaceOnUse">
<stop stop-color="#00FFFF"/>
<stop offset="1" stop-color="#00FFFF" stop-opacity="0.5"/>
</linearGradient>
<linearGradient id="paint9_linear" x1="121.52" y1="435.918" x2="160.178" y2="466.742" gradientUnits="userSpaceOnUse">
<stop stop-color="#00FFFF"/>
<stop offset="1" stop-color="#00FFFF" stop-opacity="0.56"/>
</linearGradient>
<linearGradient id="paint10_linear" x1="129.358" y1="466.842" x2="99.3679" y2="477.971" gradientUnits="userSpaceOnUse">
<stop stop-color="#00FFFF"/>
<stop offset="1" stop-color="#00FFFF" stop-opacity="0.56"/>
</linearGradient>
<linearGradient id="paint11_linear" x1="135.003" y1="462.829" x2="180.715" y2="464.187" gradientUnits="userSpaceOnUse">
<stop stop-color="#00FFFF"/>
<stop offset="1" stop-color="#00FFFF" stop-opacity="0.5"/>
</linearGradient>
<linearGradient id="paint12_linear" x1="226.618" y1="492.331" x2="265.276" y2="523.155" gradientUnits="userSpaceOnUse">
<stop stop-color="#00FFFF"/>
<stop offset="1" stop-color="#00FFFF" stop-opacity="0.56"/>
</linearGradient>
<linearGradient id="paint13_linear" x1="234.457" y1="523.255" x2="204.466" y2="534.384" gradientUnits="userSpaceOnUse">
<stop stop-color="#00FFFF"/>
<stop offset="1" stop-color="#00FFFF" stop-opacity="0.56"/>
</linearGradient>
<linearGradient id="paint14_linear" x1="240.101" y1="519.242" x2="285.813" y2="520.6" gradientUnits="userSpaceOnUse">
<stop stop-color="#00FFFF"/>
<stop offset="1" stop-color="#00FFFF" stop-opacity="0.5"/>
</linearGradient>
<linearGradient id="paint15_linear" x1="179.037" y1="448.261" x2="211.512" y2="433.318" gradientUnits="userSpaceOnUse">
<stop stop-color="#00FFFF"/>
<stop offset="1" stop-color="#00FFFF" stop-opacity="0.34"/>
</linearGradient>
<linearGradient id="paint16_linear" x1="311.064" y1="444.559" x2="277.877" y2="430.229" gradientUnits="userSpaceOnUse">
<stop stop-color="#00FFFF"/>
<stop offset="1" stop-color="#00FFFF" stop-opacity="0.34"/>
</linearGradient>
<linearGradient id="paint17_linear" x1="206.761" y1="501.698" x2="173.576" y2="486.575" gradientUnits="userSpaceOnUse">
<stop stop-color="#00FFFF"/>
<stop offset="1" stop-color="#00FFFF" stop-opacity="0.34"/>
</linearGradient>
<linearGradient id="paint18_linear" x1="284.135" y1="504.674" x2="316.61" y2="489.731" gradientUnits="userSpaceOnUse">
<stop stop-color="#00FFFF"/>
<stop offset="1" stop-color="#00FFFF" stop-opacity="0.34"/>
</linearGradient>
<linearGradient id="paint19_linear" x1="224.3" y1="81.2115" x2="262.958" y2="112.036" gradientUnits="userSpaceOnUse">
<stop stop-color="#00FFFF"/>
<stop offset="1" stop-color="#00FFFF" stop-opacity="0.56"/>
</linearGradient>
<linearGradient id="paint20_linear" x1="232.138" y1="112.135" x2="202.148" y2="123.265" gradientUnits="userSpaceOnUse">
<stop stop-color="#00FFFF"/>
<stop offset="1" stop-color="#00FFFF" stop-opacity="0.56"/>
</linearGradient>
<linearGradient id="paint21_linear" x1="237.783" y1="108.122" x2="283.495" y2="109.48" gradientUnits="userSpaceOnUse">
<stop stop-color="#00FFFF"/>
<stop offset="1" stop-color="#00FFFF" stop-opacity="0.5"/>
</linearGradient>
<linearGradient id="paint22_linear" x1="329.398" y1="137.624" x2="368.056" y2="168.449" gradientUnits="userSpaceOnUse">
<stop stop-color="#00FFFF"/>
<stop offset="1" stop-color="#00FFFF" stop-opacity="0.56"/>
</linearGradient>
<linearGradient id="paint23_linear" x1="337.236" y1="168.548" x2="307.246" y2="179.678" gradientUnits="userSpaceOnUse">
<stop stop-color="#00FFFF"/>
<stop offset="1" stop-color="#00FFFF" stop-opacity="0.56"/>
</linearGradient>
<linearGradient id="paint24_linear" x1="342.881" y1="164.535" x2="388.593" y2="165.893" gradientUnits="userSpaceOnUse">
<stop stop-color="#00FFFF"/>
<stop offset="1" stop-color="#00FFFF" stop-opacity="0.5"/>
</linearGradient>
<linearGradient id="paint25_linear" x1="120.747" y1="137.624" x2="159.405" y2="168.449" gradientUnits="userSpaceOnUse">
<stop stop-color="#00FFFF"/>
<stop offset="1" stop-color="#00FFFF" stop-opacity="0.56"/>
</linearGradient>
<linearGradient id="paint26_linear" x1="128.585" y1="168.548" x2="98.5951" y2="179.678" gradientUnits="userSpaceOnUse">
<stop stop-color="#00FFFF"/>
<stop offset="1" stop-color="#00FFFF" stop-opacity="0.56"/>
</linearGradient>
<linearGradient id="paint27_linear" x1="134.23" y1="164.535" x2="179.942" y2="165.893" gradientUnits="userSpaceOnUse">
<stop stop-color="#00FFFF"/>
<stop offset="1" stop-color="#00FFFF" stop-opacity="0.5"/>
</linearGradient>
<linearGradient id="paint28_linear" x1="225.845" y1="194.038" x2="264.504" y2="224.862" gradientUnits="userSpaceOnUse">
<stop stop-color="#00FFFF"/>
<stop offset="1" stop-color="#00FFFF" stop-opacity="0.56"/>
</linearGradient>
<linearGradient id="paint29_linear" x1="233.684" y1="224.961" x2="203.693" y2="236.091" gradientUnits="userSpaceOnUse">
<stop stop-color="#00FFFF"/>
<stop offset="1" stop-color="#00FFFF" stop-opacity="0.56"/>
</linearGradient>
<linearGradient id="paint30_linear" x1="239.329" y1="220.948" x2="285.04" y2="222.306" gradientUnits="userSpaceOnUse">
<stop stop-color="#00FFFF"/>
<stop offset="1" stop-color="#00FFFF" stop-opacity="0.5"/>
</linearGradient>
<linearGradient id="paint31_linear" x1="178.264" y1="149.968" x2="210.739" y2="135.024" gradientUnits="userSpaceOnUse">
<stop stop-color="#00FFFF"/>
<stop offset="1" stop-color="#00FFFF" stop-opacity="0.34"/>
</linearGradient>
<linearGradient id="paint32_linear" x1="310.291" y1="146.265" x2="277.104" y2="131.935" gradientUnits="userSpaceOnUse">
<stop stop-color="#00FFFF"/>
<stop offset="1" stop-color="#00FFFF" stop-opacity="0.34"/>
</linearGradient>
<linearGradient id="paint33_linear" x1="205.988" y1="203.404" x2="172.803" y2="188.282" gradientUnits="userSpaceOnUse">
<stop stop-color="#00FFFF"/>
<stop offset="1" stop-color="#00FFFF" stop-opacity="0.34"/>
</linearGradient>
<linearGradient id="paint34_linear" x1="283.362" y1="206.381" x2="315.838" y2="191.437" gradientUnits="userSpaceOnUse">
<stop stop-color="#00FFFF"/>
<stop offset="1" stop-color="#00FFFF" stop-opacity="0.34"/>
</linearGradient>
<linearGradient id="paint35_linear" x1="312.737" y1="246.653" x2="346.128" y2="273.277" gradientUnits="userSpaceOnUse">
<stop stop-color="#00FFFF"/>
<stop offset="1" stop-color="#00FFFF" stop-opacity="0.56"/>
</linearGradient>
<linearGradient id="paint36_linear" x1="319.507" y1="273.363" x2="293.603" y2="282.977" gradientUnits="userSpaceOnUse">
<stop stop-color="#00FFFF"/>
<stop offset="1" stop-color="#00FFFF" stop-opacity="0.56"/>
</linearGradient>
<linearGradient id="paint37_linear" x1="324.383" y1="269.897" x2="363.867" y2="271.07" gradientUnits="userSpaceOnUse">
<stop stop-color="#00FFFF"/>
<stop offset="1" stop-color="#00FFFF" stop-opacity="0.5"/>
</linearGradient>
<linearGradient id="paint38_linear" x1="403.516" y1="295.38" x2="436.908" y2="322.005" gradientUnits="userSpaceOnUse">
<stop stop-color="#00FFFF"/>
<stop offset="1" stop-color="#00FFFF" stop-opacity="0.56"/>
</linearGradient>
<linearGradient id="paint39_linear" x1="410.287" y1="322.091" x2="384.383" y2="331.704" gradientUnits="userSpaceOnUse">
<stop stop-color="#00FFFF"/>
<stop offset="1" stop-color="#00FFFF" stop-opacity="0.56"/>
</linearGradient>
<linearGradient id="paint40_linear" x1="415.163" y1="318.624" x2="454.647" y2="319.797" gradientUnits="userSpaceOnUse">
<stop stop-color="#00FFFF"/>
<stop offset="1" stop-color="#00FFFF" stop-opacity="0.5"/>
</linearGradient>
<linearGradient id="paint41_linear" x1="223.292" y1="295.38" x2="256.684" y2="322.005" gradientUnits="userSpaceOnUse">
<stop stop-color="#00FFFF"/>
<stop offset="1" stop-color="#00FFFF" stop-opacity="0.56"/>
</linearGradient>
<linearGradient id="paint42_linear" x1="230.063" y1="322.091" x2="204.158" y2="331.704" gradientUnits="userSpaceOnUse">
<stop stop-color="#00FFFF"/>
<stop offset="1" stop-color="#00FFFF" stop-opacity="0.56"/>
</linearGradient>
<linearGradient id="paint43_linear" x1="234.939" y1="318.624" x2="274.422" y2="319.797" gradientUnits="userSpaceOnUse">
<stop stop-color="#00FFFF"/>
<stop offset="1" stop-color="#00FFFF" stop-opacity="0.5"/>
</linearGradient>
<linearGradient id="paint44_linear" x1="314.072" y1="344.107" x2="347.463" y2="370.732" gradientUnits="userSpaceOnUse">
<stop stop-color="#00FFFF"/>
<stop offset="1" stop-color="#00FFFF" stop-opacity="0.56"/>
</linearGradient>
<linearGradient id="paint45_linear" x1="320.842" y1="370.818" x2="294.938" y2="380.431" gradientUnits="userSpaceOnUse">
<stop stop-color="#00FFFF"/>
<stop offset="1" stop-color="#00FFFF" stop-opacity="0.56"/>
</linearGradient>
<linearGradient id="paint46_linear" x1="325.718" y1="367.352" x2="365.202" y2="368.525" gradientUnits="userSpaceOnUse">
<stop stop-color="#00FFFF"/>
<stop offset="1" stop-color="#00FFFF" stop-opacity="0.5"/>
</linearGradient>
<linearGradient id="paint47_linear" x1="273.042" y1="306.192" x2="301.089" y2="293.274" gradientUnits="userSpaceOnUse">
<stop stop-color="#00FFFF"/>
<stop offset="1" stop-color="#00FFFF" stop-opacity="0.34"/>
</linearGradient>
<linearGradient id="paint48_linear" x1="387.078" y1="302.692" x2="358.407" y2="290.325" gradientUnits="userSpaceOnUse">
<stop stop-color="#00FFFF"/>
<stop offset="1" stop-color="#00FFFF" stop-opacity="0.34"/>
</linearGradient>
<linearGradient id="paint49_linear" x1="296.988" y1="352.047" x2="268.319" y2="338.996" gradientUnits="userSpaceOnUse">
<stop stop-color="#00FFFF"/>
<stop offset="1" stop-color="#00FFFF" stop-opacity="0.34"/>
</linearGradient>
<linearGradient id="paint50_linear" x1="363.822" y1="354.919" x2="391.868" y2="342.001" gradientUnits="userSpaceOnUse">
<stop stop-color="#00FFFF"/>
<stop offset="1" stop-color="#00FFFF" stop-opacity="0.34"/>
</linearGradient>
<radialGradient id="paint51_radial" cx="0" cy="0" r="1" gradientUnits="userSpaceOnUse" gradientTransform="translate(243.812 114.015) rotate(90.6366) scale(34.7773)">
<stop stop-color="white" stop-opacity="0.864583"/>
<stop offset="0.171875" stop-color="#00FFFF"/>
<stop offset="1" stop-color="#C4C4C4" stop-opacity="0"/>
</radialGradient>
<radialGradient id="paint52_radial" cx="0" cy="0" r="1" gradientUnits="userSpaceOnUse" gradientTransform="translate(348.911 170.428) rotate(90.6366) scale(34.7773)">
<stop stop-color="white" stop-opacity="0.864583"/>
<stop offset="0.171875" stop-color="#00FFFF"/>
<stop offset="1" stop-color="#C4C4C4" stop-opacity="0"/>
</radialGradient>
<radialGradient id="paint53_radial" cx="0" cy="0" r="1" gradientUnits="userSpaceOnUse" gradientTransform="translate(239.949 324.211) rotate(90.6366) scale(29.1926)">
<stop stop-color="white" stop-opacity="0.864583"/>
<stop offset="0.171875" stop-color="#00FFFF"/>
<stop offset="1" stop-color="#C4C4C4" stop-opacity="0"/>
</radialGradient>
<radialGradient id="paint54_radial" cx="0" cy="0" r="1" gradientUnits="userSpaceOnUse" gradientTransform="translate(420.007 323.439) rotate(90.6366) scale(29.1926)">
<stop stop-color="white" stop-opacity="0.864583"/>
<stop offset="0.171875" stop-color="#00FFFF"/>
<stop offset="1" stop-color="#C4C4C4" stop-opacity="0"/>
</radialGradient>
</defs>
</svg>
