<svg viewBox="0 0 131 131" xmlns="http://www.w3.org/2000/svg" fill-rule="evenodd" clip-rule="evenodd" stroke-linejoin="round" stroke-miterlimit="1.4">
  <circle cx="1565.5" cy="252.5" r="158.5" fill="#0971ff" transform="matrix(.41164 0 0 .41164 -579.1 -38.7)"/>
  <path d="M65.5 3.7a62.7 62.7 0 0 1 54.8 33.7 62.3 62.3 0 0 1 .6 54.6 62.5 62.5 0 0 1-44.1 33.8 62.7 62.7 0 0 1-60.3-23A62.4 62.4 0 0 1 4.7 54.3 61.9 61.9 0 0 1 65.5 3.7zm-.3 4.8a58 58 0 0 0-53.7 38.6 57.5 57.5 0 0 0 7.8 51.4 57.7 57.7 0 0 0 46 23.5A58 58 0 0 0 116.5 90a57.6 57.6 0 0 0-5.7-58.6A57.5 57.5 0 0 0 65.2 8.5z" fill="#fff" fill-rule="nonzero"/>
  <path d="M47 16l13.5 13.6c.5.6.5 1.4 0 2l-8 8c-.6.6-1.5.6-2 0L34 23.2c4-3 8.3-5.4 13-7.1zM84.3 15.7c4.5 1.7 8.8 4.1 12.7 7L55.5 64.2a1.4 1.4 0 0 0 0 1.9l5 5c.5.5.5 1.4 0 2-2 1.8-6.2 6.1-8 8-.6.5-1.5.5-2 0l-6-6-8.9-8.9a1.4 1.4 0 0 1 0-1.9l48.7-48.6z" fill="#fff"/>
  <path d="M34 108l41.4-41.4c.5-.6.5-1.4 0-2l-5-5c-.6-.5-.6-1.4 0-2l8-8c.5-.5 1.4-.5 2 0l6 6 8.8 9c.3.2.4.5.4.9 0 .3-.1.7-.4 1L47 114.7A53 53 0 0 1 34 108zM84.1 114.7l-13-13c-.6-.6-.6-1.5 0-2l8-8c.6-.6 1.4-.6 2 0l16 15.9c-4 3-8.3 5.3-13 7.1z" fill="#fff"/>
</svg>