<svg width="366" height="242" viewBox="0 0 366 242" fill="none" xmlns="http://www.w3.org/2000/svg">
<path d="M22.236 180.076C18.3098 177.809 16.3472 174.838 16.3483 171.867C16.3494 168.898 18.3119 165.929 22.236 163.663L222.095 48.2742C229.946 43.7419 242.673 43.7418 250.524 48.2742L343.562 101.99C347.486 104.255 349.448 107.224 349.449 110.194C349.45 113.165 347.488 116.136 343.562 118.403L143.702 233.792C135.852 238.324 123.124 238.324 115.274 233.792L22.236 180.076Z" fill="#C4C4C4"/>
<path d="M250.524 34.2066C242.673 29.6742 229.946 29.6742 222.095 34.2066L222.095 48.2742C229.946 43.7418 242.673 43.7418 250.524 48.2742L250.524 34.2066Z" fill="#C4C4C4"/>
<path d="M343.562 87.9221L250.524 34.2066L250.524 48.2742L343.562 101.99L343.562 87.9221Z" fill="#C4C4C4"/>
<path d="M222.095 34.2066L22.236 149.595L22.236 163.663L222.095 48.2742L222.095 34.2066Z" fill="#C4C4C4"/>
<path d="M349.449 96.1262C349.448 93.1568 347.486 90.1876 343.562 87.9221L343.562 101.99C347.486 104.255 349.448 107.224 349.449 110.194L349.449 96.1262Z" fill="#C4C4C4"/>
<path d="M16.3483 157.8C16.3493 154.83 18.3119 151.861 22.2359 149.595L22.2359 163.663C18.3119 165.929 16.3493 168.898 16.3483 171.867L16.3483 157.8Z" fill="#C4C4C4"/>
<path d="M343.562 104.335C347.486 102.07 349.448 99.1004 349.449 96.1311L349.449 110.194C349.45 113.165 347.488 116.136 343.562 118.403L343.562 104.335Z" fill="#2AF6FF"/>
<path d="M22.236 166.009C18.3119 163.743 16.3493 160.774 16.3483 157.804L16.3483 171.867C16.3472 174.838 18.3098 177.809 22.236 180.076L22.236 166.009Z" fill="#470FBC"/>
<path fill-rule="evenodd" clip-rule="evenodd" d="M143.702 219.724L343.562 104.335V118.403L143.702 233.792C135.852 238.324 123.124 238.324 115.274 233.792L22.236 180.076V166.009L115.274 219.724C123.124 224.256 135.852 224.256 143.702 219.724Z" fill="url(#paint0_linear)"/>
<rect width="263.604" height="140.257" rx="17" transform="matrix(0.866025 -0.5 0.866025 0.5 8.02179 157.802)" fill="url(#paint1_linear)"/>
<path d="M33.156 157.317C29.3296 155.108 29.3296 151.526 33.156 149.317L228.79 36.3676C232.641 34.144 238.894 34.1607 242.71 36.4047L272.078 53.6762C273.477 54.4991 274.408 55.5492 274.744 56.6859L275.092 57.8592C275.404 58.9137 276.228 59.8955 277.467 60.6906L280.237 62.4671C281.803 63.4716 284.026 64.0516 286.367 64.0663C288.528 64.0798 290.595 64.5752 292.138 65.4487L337.798 91.3074C341.688 93.5101 341.718 97.1216 337.866 99.3458L142.235 212.293C138.408 214.503 132.205 214.503 128.378 212.293L33.156 157.317Z" fill="url(#paint2_radial)"/>
<rect width="16" height="5" rx="1" transform="matrix(0.866025 0.5 -2.20305e-08 1 55 190)" fill="#072374"/>
<rect width="27.9726" height="27.9726" transform="matrix(0.866025 0.5 -2.20305e-08 1 75 97.9863)" fill="url(#paint3_linear)"/>
<rect width="27.9726" height="81.0017" transform="matrix(0.866025 0.5 -2.20305e-08 1 75 97.9863)" fill="url(#paint4_linear)"/>
<rect width="27.9726" height="27.9726" transform="matrix(0.866025 -0.5 0.866025 0.5 75 97.9863)" fill="url(#paint5_linear)"/>
<rect width="27.9726" height="27.9726" transform="matrix(0.866025 -0.5 2.20305e-08 1 99.0565 111.973)" fill="url(#paint6_linear)"/>
<rect width="27.9726" height="81.0006" transform="matrix(0.866025 -0.5 2.20305e-08 1 99.0565 111.973)" fill="url(#paint7_linear)"/>
<rect width="27.9726" height="27.9726" transform="matrix(0.866025 0.5 -2.20305e-08 1 123 41.9863)" fill="url(#paint8_linear)"/>
<rect width="27.9726" height="81.0017" transform="matrix(0.866025 0.5 -2.20305e-08 1 123 41.9863)" fill="url(#paint9_linear)"/>
<rect width="27.9726" height="27.9726" transform="matrix(0.866025 -0.5 0.866025 0.5 123 41.9863)" fill="url(#paint10_linear)"/>
<rect width="27.9726" height="27.9726" transform="matrix(0.866025 -0.5 2.20305e-08 1 147.056 55.9726)" fill="url(#paint11_linear)"/>
<rect width="27.9726" height="81.0006" transform="matrix(0.866025 -0.5 2.20305e-08 1 147.056 55.9726)" fill="url(#paint12_linear)"/>
<rect width="27.9726" height="27.9726" transform="matrix(0.866025 0.5 -2.20305e-08 1 147 83.9863)" fill="url(#paint13_linear)"/>
<rect width="27.9726" height="81.0017" transform="matrix(0.866025 0.5 -2.20305e-08 1 147 83.9863)" fill="url(#paint14_linear)"/>
<rect width="27.9726" height="27.9726" transform="matrix(0.866025 -0.5 0.866025 0.5 147 83.9863)" fill="url(#paint15_linear)"/>
<rect width="27.9726" height="27.9726" transform="matrix(0.866025 -0.5 2.20305e-08 1 171.056 97.9726)" fill="url(#paint16_linear)"/>
<rect width="27.9726" height="81.0006" transform="matrix(0.866025 -0.5 2.20305e-08 1 171.056 97.9726)" fill="url(#paint17_linear)"/>
<rect width="27.9726" height="27.9726" transform="matrix(0.866025 0.5 -2.20305e-08 1 171 13.9863)" fill="url(#paint18_linear)"/>
<rect width="27.9726" height="81.0017" transform="matrix(0.866025 0.5 -2.20305e-08 1 171 13.9863)" fill="url(#paint19_linear)"/>
<rect width="27.9726" height="27.9726" transform="matrix(0.866025 -0.5 0.866025 0.5 171 13.9863)" fill="url(#paint20_linear)"/>
<rect width="27.9726" height="27.9726" transform="matrix(0.866025 -0.5 2.20305e-08 1 195.056 27.9726)" fill="url(#paint21_linear)"/>
<rect width="27.9726" height="81.0006" transform="matrix(0.866025 -0.5 2.20305e-08 1 195.056 27.9726)" fill="url(#paint22_linear)"/>
<rect width="27.9726" height="27.9726" transform="matrix(0.866025 0.5 -2.20305e-08 1 123 125.986)" fill="url(#paint23_linear)"/>
<rect width="27.9726" height="81.0017" transform="matrix(0.866025 0.5 -2.20305e-08 1 123 125.986)" fill="url(#paint24_linear)"/>
<rect width="27.9726" height="27.9726" transform="matrix(0.866025 -0.5 0.866025 0.5 123 125.986)" fill="url(#paint25_linear)"/>
<rect width="27.9726" height="27.9726" transform="matrix(0.866025 -0.5 2.20305e-08 1 147.056 139.973)" fill="url(#paint26_linear)"/>
<rect width="27.9726" height="81.0006" transform="matrix(0.866025 -0.5 2.20305e-08 1 147.056 139.973)" fill="url(#paint27_linear)"/>
<rect width="27.9726" height="27.9726" transform="matrix(0.866025 0.5 -2.20305e-08 1 243 53.9863)" fill="url(#paint28_linear)"/>
<rect width="27.9726" height="81.0017" transform="matrix(0.866025 0.5 -2.20305e-08 1 243 53.9863)" fill="url(#paint29_linear)"/>
<rect width="27.9726" height="27.9726" transform="matrix(0.866025 -0.5 0.866025 0.5 243 53.9863)" fill="url(#paint30_linear)"/>
<rect width="27.9726" height="27.9726" transform="matrix(0.866025 -0.5 2.20305e-08 1 267.056 67.9726)" fill="url(#paint31_linear)"/>
<rect width="27.9726" height="81.0006" transform="matrix(0.866025 -0.5 2.20305e-08 1 267.056 67.9726)" fill="url(#paint32_linear)"/>
<rect width="27.9726" height="27.9726" transform="matrix(0.866025 0.5 -2.20305e-08 1 195 82.9863)" fill="url(#paint33_linear)"/>
<rect width="27.9726" height="81.0017" transform="matrix(0.866025 0.5 -2.20305e-08 1 195 82.9863)" fill="url(#paint34_linear)"/>
<rect width="27.9726" height="27.9726" transform="matrix(0.866025 -0.5 0.866025 0.5 195 82.9863)" fill="url(#paint35_linear)"/>
<rect width="27.9726" height="27.9726" transform="matrix(0.866025 -0.5 2.20305e-08 1 219.056 96.9726)" fill="url(#paint36_linear)"/>
<rect width="27.9726" height="81.0006" transform="matrix(0.866025 -0.5 2.20305e-08 1 219.056 96.9726)" fill="url(#paint37_linear)"/>
<rect width="42.7239" height="7.8654" rx="1" transform="matrix(0.866025 -0.5 2.20305e-08 1 297 134.362)" fill="#6E85C7"/>
<rect width="16" height="5" rx="1" transform="matrix(0.866025 -0.5 2.20305e-08 1 319 123.202)" fill="#072374"/>
<rect width="16" height="5" rx="1" transform="matrix(0.866025 -0.5 2.20305e-08 1 298 135.202)" fill="#072374"/>
<defs>
<linearGradient id="paint0_linear" x1="42" y1="191" x2="334.5" y2="115.5" gradientUnits="userSpaceOnUse">
<stop stop-color="#460EBC"/>
<stop offset="1" stop-color="#34EBFE" stop-opacity="0.92"/>
</linearGradient>
<linearGradient id="paint1_linear" x1="272.608" y1="68.0038" x2="129.725" y2="-75.7591" gradientUnits="userSpaceOnUse">
<stop stop-color="#4C17BC"/>
<stop offset="1" stop-color="#2AF6FF" stop-opacity="0.43"/>
</linearGradient>
<radialGradient id="paint2_radial" cx="0" cy="0" r="1" gradientUnits="userSpaceOnUse" gradientTransform="translate(180.5 124) rotate(-154.922) scale(198.182 329.726)">
<stop stop-color="white"/>
<stop offset="1" stop-color="#FFFEFE" stop-opacity="0"/>
</radialGradient>
<linearGradient id="paint3_linear" x1="23.168" y1="27.506" x2="3.27068" y2="-3.59048" gradientUnits="userSpaceOnUse">
<stop stop-color="#083CF5"/>
<stop offset="1" stop-color="#C2E3FE"/>
</linearGradient>
<linearGradient id="paint4_linear" x1="14.376" y1="21.7983" x2="43.7106" y2="48.1784" gradientUnits="userSpaceOnUse">
<stop stop-color="#083CF5" stop-opacity="0.14"/>
<stop offset="0.948125" stop-color="#C2E3FE" stop-opacity="0.07"/>
</linearGradient>
<linearGradient id="paint5_linear" x1="26.24" y1="17.6331" x2="9.11356" y2="-17.9305" gradientUnits="userSpaceOnUse">
<stop stop-color="#073CF5"/>
<stop offset="1" stop-color="#00A3FF" stop-opacity="0"/>
</linearGradient>
<linearGradient id="paint6_linear" x1="34.3156" y1="33.6545" x2="-5.97045" y2="38.7105" gradientUnits="userSpaceOnUse">
<stop stop-color="#083CF5"/>
<stop offset="1" stop-color="#C1E2FE"/>
</linearGradient>
<linearGradient id="paint7_linear" x1="-7.62845" y1="-6.3142" x2="55.8561" y2="106.175" gradientUnits="userSpaceOnUse">
<stop stop-color="#E5EBFE" stop-opacity="0.41"/>
<stop offset="0.982398" stop-color="#E5EBFE" stop-opacity="0"/>
</linearGradient>
<linearGradient id="paint8_linear" x1="23.168" y1="27.506" x2="3.27068" y2="-3.59048" gradientUnits="userSpaceOnUse">
<stop stop-color="#083CF5"/>
<stop offset="1" stop-color="#C2E3FE"/>
</linearGradient>
<linearGradient id="paint9_linear" x1="14.376" y1="21.7983" x2="43.7106" y2="48.1784" gradientUnits="userSpaceOnUse">
<stop stop-color="#083CF5" stop-opacity="0.14"/>
<stop offset="0.948125" stop-color="#C2E3FE" stop-opacity="0.07"/>
</linearGradient>
<linearGradient id="paint10_linear" x1="26.24" y1="17.6331" x2="9.11356" y2="-17.9305" gradientUnits="userSpaceOnUse">
<stop stop-color="#073CF5"/>
<stop offset="1" stop-color="#00A3FF" stop-opacity="0"/>
</linearGradient>
<linearGradient id="paint11_linear" x1="34.3156" y1="33.6545" x2="-5.97045" y2="38.7105" gradientUnits="userSpaceOnUse">
<stop stop-color="#083CF5"/>
<stop offset="1" stop-color="#C1E2FE"/>
</linearGradient>
<linearGradient id="paint12_linear" x1="-7.62845" y1="-6.3142" x2="55.8561" y2="106.175" gradientUnits="userSpaceOnUse">
<stop stop-color="#E5EBFE" stop-opacity="0.41"/>
<stop offset="0.982398" stop-color="#E5EBFE" stop-opacity="0"/>
</linearGradient>
<linearGradient id="paint13_linear" x1="23.168" y1="27.506" x2="3.27068" y2="-3.59048" gradientUnits="userSpaceOnUse">
<stop stop-color="#083CF5"/>
<stop offset="1" stop-color="#C2E3FE"/>
</linearGradient>
<linearGradient id="paint14_linear" x1="14.376" y1="21.7983" x2="43.7106" y2="48.1784" gradientUnits="userSpaceOnUse">
<stop stop-color="#083CF5" stop-opacity="0.14"/>
<stop offset="0.948125" stop-color="#C2E3FE" stop-opacity="0.07"/>
</linearGradient>
<linearGradient id="paint15_linear" x1="26.24" y1="17.6331" x2="9.11356" y2="-17.9305" gradientUnits="userSpaceOnUse">
<stop stop-color="#073CF5"/>
<stop offset="1" stop-color="#00A3FF" stop-opacity="0"/>
</linearGradient>
<linearGradient id="paint16_linear" x1="34.3156" y1="33.6545" x2="-5.97045" y2="38.7105" gradientUnits="userSpaceOnUse">
<stop stop-color="#083CF5"/>
<stop offset="1" stop-color="#C1E2FE"/>
</linearGradient>
<linearGradient id="paint17_linear" x1="-7.62845" y1="-6.3142" x2="55.8561" y2="106.175" gradientUnits="userSpaceOnUse">
<stop stop-color="#E5EBFE" stop-opacity="0.41"/>
<stop offset="0.982398" stop-color="#E5EBFE" stop-opacity="0"/>
</linearGradient>
<linearGradient id="paint18_linear" x1="23.168" y1="27.506" x2="3.27068" y2="-3.59048" gradientUnits="userSpaceOnUse">
<stop stop-color="#083CF5"/>
<stop offset="1" stop-color="#C2E3FE"/>
</linearGradient>
<linearGradient id="paint19_linear" x1="14.376" y1="21.7983" x2="43.7106" y2="48.1784" gradientUnits="userSpaceOnUse">
<stop stop-color="#083CF5" stop-opacity="0.14"/>
<stop offset="0.948125" stop-color="#C2E3FE" stop-opacity="0.07"/>
</linearGradient>
<linearGradient id="paint20_linear" x1="26.24" y1="17.6331" x2="9.11356" y2="-17.9305" gradientUnits="userSpaceOnUse">
<stop stop-color="#073CF5"/>
<stop offset="1" stop-color="#00A3FF" stop-opacity="0"/>
</linearGradient>
<linearGradient id="paint21_linear" x1="34.3156" y1="33.6545" x2="-5.97045" y2="38.7105" gradientUnits="userSpaceOnUse">
<stop stop-color="#083CF5"/>
<stop offset="1" stop-color="#C1E2FE"/>
</linearGradient>
<linearGradient id="paint22_linear" x1="-7.62845" y1="-6.3142" x2="55.8561" y2="106.175" gradientUnits="userSpaceOnUse">
<stop stop-color="#E5EBFE" stop-opacity="0.41"/>
<stop offset="0.982398" stop-color="#E5EBFE" stop-opacity="0"/>
</linearGradient>
<linearGradient id="paint23_linear" x1="23.168" y1="27.506" x2="3.27068" y2="-3.59048" gradientUnits="userSpaceOnUse">
<stop stop-color="#083CF5"/>
<stop offset="1" stop-color="#C2E3FE"/>
</linearGradient>
<linearGradient id="paint24_linear" x1="14.376" y1="21.7983" x2="43.7106" y2="48.1784" gradientUnits="userSpaceOnUse">
<stop stop-color="#083CF5" stop-opacity="0.14"/>
<stop offset="0.948125" stop-color="#C2E3FE" stop-opacity="0.07"/>
</linearGradient>
<linearGradient id="paint25_linear" x1="26.24" y1="17.6331" x2="9.11356" y2="-17.9305" gradientUnits="userSpaceOnUse">
<stop stop-color="#073CF5"/>
<stop offset="1" stop-color="#00A3FF" stop-opacity="0"/>
</linearGradient>
<linearGradient id="paint26_linear" x1="34.3156" y1="33.6545" x2="-5.97045" y2="38.7105" gradientUnits="userSpaceOnUse">
<stop stop-color="#083CF5"/>
<stop offset="1" stop-color="#C1E2FE"/>
</linearGradient>
<linearGradient id="paint27_linear" x1="-7.62845" y1="-6.3142" x2="55.8561" y2="106.175" gradientUnits="userSpaceOnUse">
<stop stop-color="#E5EBFE" stop-opacity="0.41"/>
<stop offset="0.982398" stop-color="#E5EBFE" stop-opacity="0"/>
</linearGradient>
<linearGradient id="paint28_linear" x1="23.168" y1="27.506" x2="3.27068" y2="-3.59048" gradientUnits="userSpaceOnUse">
<stop stop-color="#083CF5"/>
<stop offset="1" stop-color="#C2E3FE"/>
</linearGradient>
<linearGradient id="paint29_linear" x1="14.376" y1="21.7983" x2="43.7106" y2="48.1784" gradientUnits="userSpaceOnUse">
<stop stop-color="#083CF5" stop-opacity="0.14"/>
<stop offset="0.948125" stop-color="#C2E3FE" stop-opacity="0.07"/>
</linearGradient>
<linearGradient id="paint30_linear" x1="26.24" y1="17.6331" x2="9.11356" y2="-17.9305" gradientUnits="userSpaceOnUse">
<stop stop-color="#073CF5"/>
<stop offset="1" stop-color="#00A3FF" stop-opacity="0"/>
</linearGradient>
<linearGradient id="paint31_linear" x1="34.3156" y1="33.6545" x2="-5.97045" y2="38.7105" gradientUnits="userSpaceOnUse">
<stop stop-color="#083CF5"/>
<stop offset="1" stop-color="#C1E2FE"/>
</linearGradient>
<linearGradient id="paint32_linear" x1="-7.62845" y1="-6.3142" x2="55.8561" y2="106.175" gradientUnits="userSpaceOnUse">
<stop stop-color="#E5EBFE" stop-opacity="0.41"/>
<stop offset="0.982398" stop-color="#E5EBFE" stop-opacity="0"/>
</linearGradient>
<linearGradient id="paint33_linear" x1="23.168" y1="27.506" x2="3.27068" y2="-3.59048" gradientUnits="userSpaceOnUse">
<stop stop-color="#083CF5"/>
<stop offset="1" stop-color="#C2E3FE"/>
</linearGradient>
<linearGradient id="paint34_linear" x1="14.376" y1="21.7983" x2="43.7106" y2="48.1784" gradientUnits="userSpaceOnUse">
<stop stop-color="#083CF5" stop-opacity="0.14"/>
<stop offset="0.948125" stop-color="#C2E3FE" stop-opacity="0.07"/>
</linearGradient>
<linearGradient id="paint35_linear" x1="26.24" y1="17.6331" x2="9.11356" y2="-17.9305" gradientUnits="userSpaceOnUse">
<stop stop-color="#073CF5"/>
<stop offset="1" stop-color="#00A3FF" stop-opacity="0"/>
</linearGradient>
<linearGradient id="paint36_linear" x1="34.3156" y1="33.6545" x2="-5.97045" y2="38.7105" gradientUnits="userSpaceOnUse">
<stop stop-color="#083CF5"/>
<stop offset="1" stop-color="#C1E2FE"/>
</linearGradient>
<linearGradient id="paint37_linear" x1="-7.62845" y1="-6.3142" x2="55.8561" y2="106.175" gradientUnits="userSpaceOnUse">
<stop stop-color="#E5EBFE" stop-opacity="0.41"/>
<stop offset="0.982398" stop-color="#E5EBFE" stop-opacity="0"/>
</linearGradient>
</defs>
</svg>
