<svg width="294" height="295" viewBox="0 0 294 295" fill="none" xmlns="http://www.w3.org/2000/svg">
<path d="M225.764 150.602C225.764 193.889 190.706 228.981 147.459 228.981C104.212 228.981 69.1533 193.889 69.1533 150.602C69.1533 107.314 104.212 72.223 147.459 72.223C190.706 72.223 225.764 107.314 225.764 150.602Z" fill="url(#paint0_radial)"/>
<path d="M225.764 150.602C225.764 193.889 190.706 228.981 147.459 228.981C104.212 228.981 69.1533 193.889 69.1533 150.602C69.1533 107.314 104.212 72.223 147.459 72.223C190.706 72.223 225.764 107.314 225.764 150.602Z" fill="url(#paint1_radial)"/>
<path d="M232.883 150.602C232.883 197.825 194.637 236.106 147.459 236.106C100.28 236.106 62.0346 197.825 62.0346 150.602C62.0346 103.379 100.28 65.0976 147.459 65.0976C194.637 65.0976 232.883 103.379 232.883 150.602ZM63.1856 150.602C63.1856 197.188 100.916 234.954 147.459 234.954C194.001 234.954 231.732 197.188 231.732 150.602C231.732 104.015 194.001 66.2497 147.459 66.2497C100.916 66.2497 63.1856 104.015 63.1856 150.602Z" fill="url(#paint2_linear)"/>
<path fill-rule="evenodd" clip-rule="evenodd" d="M96.4314 200.87C103.124 245.626 121.553 277.493 144.786 278.676C167.73 279.845 189.047 250.769 200.36 207.819C239.323 202.23 266.864 186.678 269.226 165.586C271.685 143.633 246.216 121.481 206.844 107.435C200.882 59.8014 181.909 25.3437 157.732 24.1124C135.116 22.9606 114.08 51.196 102.648 93.14C54.574 96.1256 18.8604 113.013 16.1558 137.163C13.342 162.288 47.1073 187.673 96.4314 200.87ZM97.175 200.235C109.393 203.497 122.577 206.002 136.399 207.554C159.155 210.11 180.796 209.766 199.703 207.042C203.901 191.1 206.701 173.222 207.665 154.267C208.491 138.03 207.896 122.443 206.1 108.07C189.267 102.053 169.852 97.5388 148.983 95.1948C133.022 93.4022 117.61 93.0363 103.305 93.9174C98.8354 110.316 95.8536 128.838 94.8526 148.522C93.9201 166.859 94.8 184.368 97.175 200.235ZM97.3065 201.102C109.48 204.312 122.586 206.78 136.313 208.321C158.972 210.866 180.54 210.575 199.463 207.946C188.243 249.83 167.349 278.106 144.873 276.961C122.109 275.802 104.02 244.783 97.3065 201.102ZM102.423 93.9735C98.0183 110.387 95.0798 128.866 94.0822 148.482C93.1545 166.724 93.9962 184.157 96.3032 200C48.0526 186.925 15.0992 162.013 17.8607 137.354C20.5145 113.658 55.3829 97.0496 102.423 93.9735ZM103.533 93.0867C117.817 92.253 133.175 92.6424 149.068 94.4275C169.817 96.7579 189.147 101.205 205.98 107.129C199.975 60.603 181.344 27.0344 157.645 25.8275C135.484 24.6989 114.862 52.1704 103.533 93.0867ZM206.96 108.379C208.694 122.698 209.256 138.186 208.436 154.306C207.477 173.168 204.723 190.978 200.597 206.911C238.499 201.274 265.211 186.019 267.521 165.395C269.926 143.92 245.244 122.253 206.96 108.379Z" fill="url(#paint3_linear)"/>
<path fill-rule="evenodd" clip-rule="evenodd" d="M153.843 221.028C191.755 245.607 227.778 252.867 244.039 236.235C260.292 219.611 252.276 183.743 226.933 146.355C248.219 112.833 254.387 81.5061 239.794 65.9433C224.766 49.9161 191.671 54.8228 155.679 75.445C116.518 49.0475 78.7872 40.8225 62.0343 57.9578C46.1796 74.1743 53.4184 108.702 77.3071 145.091C47.958 183.93 37.3955 222.5 54.1278 240.344C71.3088 258.667 112.103 249.629 153.843 221.028ZM153.851 220.044C164.508 212.734 175.226 204.132 185.618 194.37C202.128 178.863 215.773 162.347 225.922 146.342C216.908 133.047 205.674 119.557 192.539 106.692C180.527 94.9255 168.027 84.7606 155.671 76.4292C140.013 85.3885 123.796 97.365 108.304 111.917C96.8629 122.664 86.7977 133.894 78.3181 145.104C87.6246 159.283 99.4937 173.748 113.534 187.501C126.665 200.364 140.379 211.312 153.851 220.044ZM154.585 220.518C165.176 213.203 175.82 204.633 186.146 194.933C202.582 179.494 216.218 163.07 226.446 147.118C251.046 183.731 258.737 218.745 242.812 235.034C226.879 251.331 191.709 244.375 154.585 220.518ZM77.7833 145.813C87.1429 159.95 99.0055 174.35 112.994 188.053C126.061 200.852 139.696 211.781 153.11 220.551C112.156 248.421 72.2403 257.151 55.3787 239.169C38.96 221.659 49.1815 183.921 77.7833 145.813ZM77.8457 144.381C86.3433 133.222 96.3872 122.051 107.776 111.354C123.181 96.8832 139.294 84.9249 154.886 75.9019C116.525 50.2636 79.6796 42.365 63.2605 59.1588C47.7265 75.0474 54.664 108.754 77.8457 144.381ZM156.465 75.9772C168.743 84.3255 181.148 94.4535 193.079 106.14C206.144 118.938 217.355 132.345 226.404 145.577C246.959 112.836 252.813 82.3369 238.543 67.1182C223.843 51.4413 191.621 56.0669 156.465 75.9772Z" fill="url(#paint4_linear)"/>
<rect width="20.3389" height="20.3532" transform="matrix(0.865822 -0.500352 2.20099e-08 1 71.1346 57.9895)" fill="url(#paint5_linear)" fill-opacity="0.87"/>
<rect width="20.3387" height="20.3387" transform="matrix(0.865822 -0.500352 0.865822 0.500352 53.3557 47.6635)" fill="url(#paint6_linear)" fill-opacity="0.87"/>
<rect width="20.3387" height="20.353" transform="matrix(0.865822 0.500352 -2.20099e-08 1 53.1362 47.8129)" fill="url(#paint7_linear)" fill-opacity="0.87"/>
<rect width="20.3389" height="20.3532" transform="matrix(0.865822 -0.500352 2.20099e-08 1 155.687 28.4919)" fill="url(#paint8_linear)" fill-opacity="0.87"/>
<rect width="20.3387" height="20.3387" transform="matrix(0.865822 -0.500352 0.865822 0.500352 137.908 18.1659)" fill="url(#paint9_linear)" fill-opacity="0.87"/>
<rect width="20.3387" height="20.353" transform="matrix(0.865822 0.500352 -2.20099e-08 1 137.689 18.3153)" fill="url(#paint10_linear)" fill-opacity="0.87"/>
<rect width="20.3389" height="20.3532" transform="matrix(0.865822 -0.500352 2.20099e-08 1 244.11 63.8291)" fill="url(#paint11_linear)" fill-opacity="0.87"/>
<rect width="20.3387" height="20.3387" transform="matrix(0.865822 -0.500352 0.865822 0.500352 226.331 53.5031)" fill="url(#paint12_linear)" fill-opacity="0.87"/>
<rect width="20.3387" height="20.353" transform="matrix(0.865822 0.500352 -2.20099e-08 1 226.111 53.6525)" fill="url(#paint13_linear)" fill-opacity="0.87"/>
<rect width="20.3389" height="20.3532" transform="matrix(0.865822 -0.500352 2.20099e-08 1 271.11 156.829)" fill="url(#paint14_linear)" fill-opacity="0.87"/>
<rect width="20.3387" height="20.3387" transform="matrix(0.865822 -0.500352 0.865822 0.500352 253.331 146.503)" fill="url(#paint15_linear)" fill-opacity="0.87"/>
<rect width="20.3387" height="20.353" transform="matrix(0.865822 0.500352 -2.20099e-08 1 253.111 146.652)" fill="url(#paint16_linear)" fill-opacity="0.87"/>
<rect width="20.3389" height="20.3532" transform="matrix(0.865822 -0.500352 2.20099e-08 1 239.332 236.018)" fill="url(#paint17_linear)" fill-opacity="0.87"/>
<rect width="20.3387" height="20.3387" transform="matrix(0.865822 -0.500352 0.865822 0.500352 221.553 225.692)" fill="url(#paint18_linear)" fill-opacity="0.87"/>
<rect width="20.3387" height="20.353" transform="matrix(0.865822 0.500352 -2.20099e-08 1 221.333 225.841)" fill="url(#paint19_linear)" fill-opacity="0.87"/>
<rect width="20.3389" height="20.3532" transform="matrix(0.865822 -0.500352 2.20099e-08 1 149.11 273.829)" fill="url(#paint20_linear)" fill-opacity="0.87"/>
<rect width="20.3387" height="20.3387" transform="matrix(0.865822 -0.500352 0.865822 0.500352 131.331 263.503)" fill="url(#paint21_linear)" fill-opacity="0.87"/>
<rect width="20.3387" height="20.353" transform="matrix(0.865822 0.500352 -2.20099e-08 1 131.111 263.652)" fill="url(#paint22_linear)" fill-opacity="0.87"/>
<rect width="20.3389" height="20.3532" transform="matrix(0.865822 -0.500352 2.20099e-08 1 55.1099 241.829)" fill="url(#paint23_linear)" fill-opacity="0.87"/>
<rect width="20.3387" height="20.3387" transform="matrix(0.865822 -0.500352 0.865822 0.500352 37.3309 231.503)" fill="url(#paint24_linear)" fill-opacity="0.87"/>
<rect width="20.3387" height="20.353" transform="matrix(0.865822 0.500352 -2.20099e-08 1 37.1114 231.652)" fill="url(#paint25_linear)" fill-opacity="0.87"/>
<rect width="20.3389" height="20.3532" transform="matrix(0.865822 -0.500352 2.20099e-08 1 19.1099 139.829)" fill="url(#paint26_linear)" fill-opacity="0.87"/>
<rect width="20.3387" height="20.3387" transform="matrix(0.865822 -0.500352 0.865822 0.500352 1.33087 129.503)" fill="url(#paint27_linear)" fill-opacity="0.87"/>
<rect width="20.3387" height="20.353" transform="matrix(0.865822 0.500352 -2.20099e-08 1 1.11139 129.652)" fill="url(#paint28_linear)" fill-opacity="0.87"/>
<g filter="url(#filter0_f)">
<ellipse cx="147.477" cy="252.924" rx="49.8307" ry="11.5787" fill="#072374" fill-opacity="0.36"/>
</g>
<defs>
<filter id="filter0_f" x="81.6461" y="225.345" width="131.661" height="55.1574" filterUnits="userSpaceOnUse" color-interpolation-filters="sRGB">
<feFlood flood-opacity="0" result="BackgroundImageFix"/>
<feBlend mode="normal" in="SourceGraphic" in2="BackgroundImageFix" result="shape"/>
<feGaussianBlur stdDeviation="8" result="effect1_foregroundBlur"/>
</filter>
<radialGradient id="paint0_radial" cx="0" cy="0" r="1" gradientUnits="userSpaceOnUse" gradientTransform="translate(69.1533 92.7084) rotate(37.8221) scale(198.262 198.308)">
<stop stop-color="#072374"/>
<stop offset="1" stop-color="#2AF6FF"/>
</radialGradient>
<radialGradient id="paint1_radial" cx="0" cy="0" r="1" gradientUnits="userSpaceOnUse" gradientTransform="translate(113.2 105.623) rotate(49.9625) scale(139.017 138.995)">
<stop stop-color="#072374"/>
<stop offset="0.83611" stop-color="#2AF6FF" stop-opacity="0.9"/>
</radialGradient>
<linearGradient id="paint2_linear" x1="205.702" y1="246.308" x2="83.2371" y2="72.4931" gradientUnits="userSpaceOnUse">
<stop stop-color="#072374"/>
<stop offset="0.83611" stop-color="#2AF6FF" stop-opacity="0.9"/>
</linearGradient>
<linearGradient id="paint3_linear" x1="88.1597" y1="239.009" x2="245.912" y2="187.164" gradientUnits="userSpaceOnUse">
<stop stop-color="#072374"/>
<stop offset="0.83611" stop-color="#2AF6FF" stop-opacity="0.9"/>
</linearGradient>
<linearGradient id="paint4_linear" x1="170.263" y1="253.716" x2="245.283" y2="105.454" gradientUnits="userSpaceOnUse">
<stop stop-color="#072374"/>
<stop offset="0.83611" stop-color="#2AF6FF" stop-opacity="0.9"/>
</linearGradient>
<linearGradient id="paint5_linear" x1="5.44047" y1="12.397" x2="1.13857" y2="-8.85487" gradientUnits="userSpaceOnUse">
<stop stop-color="#0B3A83"/>
<stop offset="1" stop-color="#2AF2FD" stop-opacity="0"/>
</linearGradient>
<linearGradient id="paint6_linear" x1="13.8982" y1="8.47948" x2="12.5834" y2="-8.08749" gradientUnits="userSpaceOnUse">
<stop stop-color="#072374"/>
<stop offset="1" stop-color="#2AF6FF"/>
</linearGradient>
<linearGradient id="paint7_linear" x1="10.2983" y1="17.3706" x2="10.2983" y2="-15.1388" gradientUnits="userSpaceOnUse">
<stop stop-color="#072374"/>
<stop offset="1" stop-color="#2AF6FF"/>
</linearGradient>
<linearGradient id="paint8_linear" x1="5.44047" y1="12.397" x2="1.13857" y2="-8.85487" gradientUnits="userSpaceOnUse">
<stop stop-color="#0B3A83"/>
<stop offset="1" stop-color="#2AF2FD" stop-opacity="0"/>
</linearGradient>
<linearGradient id="paint9_linear" x1="13.8982" y1="8.47948" x2="12.5834" y2="-8.08749" gradientUnits="userSpaceOnUse">
<stop stop-color="#072374"/>
<stop offset="1" stop-color="#2AF6FF"/>
</linearGradient>
<linearGradient id="paint10_linear" x1="10.2983" y1="17.3706" x2="10.2983" y2="-15.1388" gradientUnits="userSpaceOnUse">
<stop stop-color="#072374"/>
<stop offset="1" stop-color="#2AF6FF"/>
</linearGradient>
<linearGradient id="paint11_linear" x1="5.44047" y1="12.397" x2="1.13857" y2="-8.85487" gradientUnits="userSpaceOnUse">
<stop stop-color="#0B3A83"/>
<stop offset="1" stop-color="#2AF2FD" stop-opacity="0"/>
</linearGradient>
<linearGradient id="paint12_linear" x1="13.8982" y1="8.47948" x2="12.5834" y2="-8.08749" gradientUnits="userSpaceOnUse">
<stop stop-color="#072374"/>
<stop offset="1" stop-color="#2AF6FF"/>
</linearGradient>
<linearGradient id="paint13_linear" x1="10.2983" y1="17.3706" x2="10.2983" y2="-15.1388" gradientUnits="userSpaceOnUse">
<stop stop-color="#072374"/>
<stop offset="1" stop-color="#2AF6FF"/>
</linearGradient>
<linearGradient id="paint14_linear" x1="5.44047" y1="12.397" x2="1.13857" y2="-8.85487" gradientUnits="userSpaceOnUse">
<stop stop-color="#0B3A83"/>
<stop offset="1" stop-color="#2AF2FD" stop-opacity="0"/>
</linearGradient>
<linearGradient id="paint15_linear" x1="13.8982" y1="8.47948" x2="12.5834" y2="-8.08749" gradientUnits="userSpaceOnUse">
<stop stop-color="#072374"/>
<stop offset="1" stop-color="#2AF6FF"/>
</linearGradient>
<linearGradient id="paint16_linear" x1="10.2983" y1="17.3706" x2="10.2983" y2="-15.1388" gradientUnits="userSpaceOnUse">
<stop stop-color="#072374"/>
<stop offset="1" stop-color="#2AF6FF"/>
</linearGradient>
<linearGradient id="paint17_linear" x1="5.44047" y1="12.397" x2="1.13857" y2="-8.85487" gradientUnits="userSpaceOnUse">
<stop stop-color="#0B3A83"/>
<stop offset="1" stop-color="#2AF2FD" stop-opacity="0"/>
</linearGradient>
<linearGradient id="paint18_linear" x1="13.8982" y1="8.47948" x2="12.5834" y2="-8.08749" gradientUnits="userSpaceOnUse">
<stop stop-color="#072374"/>
<stop offset="1" stop-color="#2AF6FF"/>
</linearGradient>
<linearGradient id="paint19_linear" x1="10.2983" y1="17.3706" x2="10.2983" y2="-15.1388" gradientUnits="userSpaceOnUse">
<stop stop-color="#072374"/>
<stop offset="1" stop-color="#2AF6FF"/>
</linearGradient>
<linearGradient id="paint20_linear" x1="5.44047" y1="12.397" x2="1.13857" y2="-8.85487" gradientUnits="userSpaceOnUse">
<stop stop-color="#0B3A83"/>
<stop offset="1" stop-color="#2AF2FD" stop-opacity="0"/>
</linearGradient>
<linearGradient id="paint21_linear" x1="13.8982" y1="8.47948" x2="12.5834" y2="-8.08749" gradientUnits="userSpaceOnUse">
<stop stop-color="#072374"/>
<stop offset="1" stop-color="#2AF6FF"/>
</linearGradient>
<linearGradient id="paint22_linear" x1="10.2983" y1="17.3706" x2="10.2983" y2="-15.1388" gradientUnits="userSpaceOnUse">
<stop stop-color="#072374"/>
<stop offset="1" stop-color="#2AF6FF"/>
</linearGradient>
<linearGradient id="paint23_linear" x1="5.44047" y1="12.397" x2="1.13857" y2="-8.85487" gradientUnits="userSpaceOnUse">
<stop stop-color="#0B3A83"/>
<stop offset="1" stop-color="#2AF2FD" stop-opacity="0"/>
</linearGradient>
<linearGradient id="paint24_linear" x1="13.8982" y1="8.47948" x2="12.5834" y2="-8.08749" gradientUnits="userSpaceOnUse">
<stop stop-color="#072374"/>
<stop offset="1" stop-color="#2AF6FF"/>
</linearGradient>
<linearGradient id="paint25_linear" x1="10.2983" y1="17.3706" x2="10.2983" y2="-15.1388" gradientUnits="userSpaceOnUse">
<stop stop-color="#072374"/>
<stop offset="1" stop-color="#2AF6FF"/>
</linearGradient>
<linearGradient id="paint26_linear" x1="5.44047" y1="12.397" x2="1.13857" y2="-8.85487" gradientUnits="userSpaceOnUse">
<stop stop-color="#0B3A83"/>
<stop offset="1" stop-color="#2AF2FD" stop-opacity="0"/>
</linearGradient>
<linearGradient id="paint27_linear" x1="13.8982" y1="8.47948" x2="12.5834" y2="-8.08749" gradientUnits="userSpaceOnUse">
<stop stop-color="#072374"/>
<stop offset="1" stop-color="#2AF6FF"/>
</linearGradient>
<linearGradient id="paint28_linear" x1="10.2983" y1="17.3706" x2="10.2983" y2="-15.1388" gradientUnits="userSpaceOnUse">
<stop stop-color="#072374"/>
<stop offset="1" stop-color="#2AF6FF"/>
</linearGradient>
</defs>
</svg>
