<svg width="396" height="392" viewBox="0 0 396 392" fill="none" xmlns="http://www.w3.org/2000/svg">
<path d="M115.378 256.829L142.39 237.723" stroke="url(#paint0_linear)"/>
<path d="M37.6363 236.405L114.06 184.358" stroke="url(#paint1_linear)"/>
<path d="M259.903 159.883L369.089 235.973" stroke="url(#paint2_linear)"/>
<path d="M241.634 327.832L304.875 371.904" stroke="url(#paint3_linear)"/>
<path d="M197.648 364.99L226.548 386.815" stroke="url(#paint4_linear)"/>
<path d="M130.978 322.99L152.599 338.057" stroke="url(#paint5_linear)"/>
<path d="M35.8466 256.694L53.1432 268.748" stroke="url(#paint6_linear)"/>
<path d="M124.551 191.632L113.2 183.722" stroke="url(#paint7_linear)"/>
<path d="M68.8827 258.838L38.2951 236.405" stroke="url(#paint8_linear)"/>
<path d="M138.492 251.136L218.814 307.558" stroke="url(#paint9_linear)"/>
<path d="M218.814 307.558L195.755 325.347" stroke="url(#paint10_linear)"/>
<path d="M251.489 239.943L269.543 252.876" stroke="url(#paint11_linear)"/>
<path d="M240.008 247.199L260.007 261.137" stroke="url(#paint12_linear)"/>
<path d="M227.871 250.787L252.195 267.738" stroke="url(#paint13_linear)"/>
<path d="M259.661 160.64L243.19 171.181" stroke="url(#paint14_linear)"/>
<path d="M368.367 237.064L333.45 262.099" stroke="url(#paint15_linear)"/>
<path d="M243.849 327.982L258.343 317.441" stroke="url(#paint16_linear)"/>
<path d="M139.096 251.558L147.66 244.97" stroke="url(#paint17_linear)"/>
<path d="M121.243 226.291C117.786 223.905 116.058 220.778 116.059 217.652C116.06 214.527 117.788 211.402 121.243 209.017L185.076 164.97C191.989 160.2 203.196 160.2 210.108 164.97L273.941 209.017C277.396 211.402 279.124 214.527 279.125 217.652C279.126 220.778 277.398 223.905 273.941 226.291L210.108 270.338C203.196 275.108 191.989 275.108 185.076 270.338L121.243 226.291Z" fill="#C4C4C4"/>
<path d="M273.941 210.005C277.396 207.621 279.125 204.496 279.126 201.371L279.126 217.652C279.126 220.778 277.398 223.905 273.941 226.291L273.941 210.005Z" fill="#BA3FA4"/>
<path d="M121.243 210.005C117.788 207.621 116.06 204.496 116.059 201.371L116.059 217.652C116.058 220.778 117.786 223.905 121.243 226.291L121.243 210.005Z" fill="#072374"/>
<path fill-rule="evenodd" clip-rule="evenodd" d="M121.243 210.005L185.076 254.053V254.053C191.989 258.823 203.196 258.823 210.108 254.053V270.339C203.196 275.108 191.989 275.108 185.076 270.339V270.338L121.243 226.291L121.243 210.005ZM210.108 254.053L273.941 210.005V226.291L210.108 270.339V254.053Z" fill="url(#paint18_linear)"/>
<rect width="107.969" height="107.969" rx="11" transform="matrix(0.823062 -0.567952 0.823062 0.567952 108.727 201.368)" fill="url(#paint19_linear)"/>
<g filter="url(#filter0_d)">
<path d="M235.24 176.594C245.813 183.346 251.101 192.196 251.104 201.045C251.106 209.9 245.818 218.755 235.24 225.511C214.088 239.019 179.794 239.019 158.642 225.511C148.068 218.759 142.78 209.91 142.778 201.06C142.775 192.205 148.063 183.35 158.642 176.594C179.794 163.086 214.088 163.086 235.24 176.594Z" fill="#C4C4C4"/>
<path d="M235.24 163.354C214.088 149.846 179.794 149.846 158.642 163.354L158.642 176.594C179.794 163.086 214.088 163.086 235.24 176.594L235.24 163.354Z" fill="#C4C4C4"/>
<path d="M251.104 187.805C251.101 178.956 245.813 170.106 235.24 163.354L235.24 176.594C245.813 183.346 251.101 192.196 251.104 201.045L251.104 187.805Z" fill="#C4C4C4"/>
<path d="M158.642 163.354C148.063 170.11 142.775 178.965 142.778 187.82L142.778 201.045C142.781 192.196 148.069 183.346 158.642 176.594L158.642 163.354Z" fill="#C4C4C4"/>
<path d="M235.24 212.271C245.813 205.519 251.101 196.67 251.104 187.82L251.104 201.045C251.107 209.9 245.819 218.755 235.24 225.511L235.24 212.271Z" fill="url(#paint20_linear)"/>
<path d="M142.778 187.82C142.781 196.67 148.069 205.519 158.642 212.271L158.642 225.511C148.069 218.759 142.781 209.91 142.778 201.06L142.778 187.82Z" fill="#F573AD"/>
<path d="M158.642 212.271C179.794 225.779 214.088 225.779 235.24 212.271L235.24 225.511C214.088 239.019 179.794 239.019 158.642 225.511L158.642 212.271Z" fill="url(#paint21_linear)"/>
<circle r="45.4426" transform="matrix(0.8428 -0.538226 0.8428 0.538226 196.941 187.813)" fill="url(#paint22_linear)"/>
</g>
<path d="M284.137 45.6188C289.551 48.4987 224.641 185.652 224.642 189.426C224.644 193.203 221.936 196.98 216.52 199.861C205.69 205.623 188.131 205.623 177.301 199.861C171.887 196.981 169.18 193.207 169.178 189.432C169.177 185.656 107.218 48.5002 112.635 45.6187C123.465 39.8573 273.307 39.8574 284.137 45.6188Z" fill="url(#paint23_linear)"/>
<path d="M216.519 170.056C205.69 164.295 188.131 164.295 177.301 170.056L177.301 178.997C188.131 173.236 205.69 173.236 216.519 178.997L216.519 170.056Z" fill="#B09090"/>
<path d="M224.642 180.485C224.641 176.71 221.933 172.936 216.52 170.056L216.52 178.997C221.933 181.877 224.641 185.652 224.642 189.426L224.642 180.485Z" fill="#B09090"/>
<path d="M177.301 170.056C171.884 172.938 169.177 176.714 169.178 180.491L169.178 189.426C169.18 185.652 171.887 181.877 177.301 178.997L177.301 170.056Z" fill="#B09090"/>
<path d="M216.747 177.541C222.161 180.421 224.868 184.196 224.869 187.97C224.871 191.747 222.163 195.524 216.747 198.405C205.917 204.167 188.358 204.167 177.528 198.405C172.115 195.525 169.407 191.751 169.406 187.976C169.404 184.2 172.112 180.423 177.528 177.541C188.358 171.78 205.917 171.78 216.747 177.541Z" fill="#FFC094"/>
<path d="M178.393 145.378C186.154 150.734 192.446 145.76 192.446 134.27C192.446 122.78 186.154 109.124 178.393 103.769C170.632 98.4132 164.341 103.386 164.341 114.877C164.341 126.367 170.632 140.023 178.393 145.378Z" fill="#D68F30"/>
<path d="M165.296 120.94L165.296 123.066C165.443 123.729 165.608 124.397 165.786 125.058L165.786 121.278L165.296 120.94Z" fill="#BC6F00"/>
<path d="M166.899 126.047L166.899 128.6C167.095 129.145 167.298 129.688 167.511 130.223L167.511 126.469L166.899 126.047Z" fill="#BC6F00"/>
<path d="M169.02 130.847L169.02 133.6C169.258 134.08 169.503 134.55 169.755 135.014L169.755 131.354L169.02 130.847Z" fill="#BC6F00"/>
<path d="M171.632 135.185L171.632 138.144C171.872 138.506 172.117 138.86 172.367 139.21L172.367 135.692L171.632 135.185Z" fill="#BC6F00"/>
<path d="M174.594 138.843L174.594 141.976C174.836 142.245 175.081 142.505 175.329 142.759L175.329 139.35L174.594 138.843Z" fill="#BC6F00"/>
<path d="M178.06 141.793L178.06 145.134C178.17 145.213 178.281 145.297 178.393 145.375C178.528 145.468 178.663 145.55 178.795 145.637L178.795 142.3L178.06 141.793Z" fill="#BC6F00"/>
<path d="M181.527 143.601L181.527 147.011C181.774 147.098 182.019 147.173 182.262 147.239L182.262 144.109L181.527 143.601Z" fill="#BC6F00"/>
<path d="M184.481 144.004L184.481 147.526C184.731 147.521 184.976 147.498 185.216 147.464L185.216 144.511L184.481 144.004Z" fill="#BC6F00"/>
<path d="M187.085 143.244L187.085 146.908C187.338 146.79 187.583 146.654 187.82 146.501L187.82 143.751L187.085 143.244Z" fill="#BC6F00"/>
<path d="M189.93 141.859L189.317 141.437L189.317 145.191C189.53 144.946 189.736 144.685 189.93 144.405L189.93 141.859Z" fill="#BC6F00"/>
<path d="M191.522 138.943L191.032 138.605L191.032 142.392C191.211 141.967 191.375 141.518 191.522 141.05L191.522 138.943Z" fill="#BC6F00"/>
<path d="M178.393 143.507C186.154 148.862 192.446 143.889 192.446 132.399C192.446 120.908 186.154 107.252 178.393 101.897C170.632 96.5415 164.341 101.515 164.341 113.005C164.341 124.495 170.632 138.151 178.393 143.507Z" fill="#FFF176"/>
<path d="M178.393 141.653C185.463 146.531 191.194 142.001 191.194 131.535C191.194 121.068 185.463 108.629 178.393 103.75C171.324 98.872 165.593 103.402 165.593 113.869C165.593 124.335 171.324 136.775 178.393 141.653Z" fill="#F2BC1A"/>
<path d="M165.568 114.577C165.478 112.019 165.769 109.689 166.357 107.722C166.97 105.78 167.908 104.241 169.091 103.2C171.468 101.118 174.917 101.341 178.393 103.714C181.87 106.142 185.321 110.678 187.693 116.04C188.879 118.711 189.814 121.548 190.427 124.332C191.017 127.115 191.309 129.844 191.216 132.275L191.167 132.241C191.162 129.749 190.829 127.055 190.187 124.311C189.543 121.569 188.604 118.83 187.421 116.247C186.237 113.666 184.83 111.292 183.281 109.263C181.732 107.236 180.07 105.596 178.391 104.438C176.712 103.279 175.05 102.626 173.501 102.514C171.951 102.405 170.544 102.837 169.361 103.785C168.177 104.733 167.237 106.176 166.595 108.031C165.952 109.889 165.62 112.123 165.615 114.609L165.568 114.577Z" fill="#E08F00"/>
<path d="M178.393 101.901C170.632 96.5457 164.341 101.519 164.341 113.009C164.341 124.5 170.632 138.155 178.393 143.511C186.155 148.867 192.446 143.894 192.446 132.403C192.446 120.912 186.155 107.257 178.393 101.901ZM178.393 141.658C171.323 136.779 165.593 124.341 165.593 113.873C165.593 103.402 171.323 98.8722 178.393 103.751C185.464 108.63 191.194 121.068 191.194 131.535C191.194 142.003 185.464 146.536 178.393 141.658Z" fill="#FFF176"/>
<path d="M172.021 103.771L172.332 105.411L173.347 105.538L173.347 106.111L172.526 106.426L172.839 107.491L172.839 108.068L172.021 106.622L171.201 106.937L171.201 106.36L171.514 105.728L170.696 104.282L170.696 103.709L171.708 104.98L172.021 103.771Z" fill="#D38200"/>
<path d="M168.106 109.252L168.42 110.894L169.432 111.019L169.432 111.592L168.613 111.909L168.927 112.978L168.927 113.551L168.106 112.103L167.288 112.42L167.288 111.847L167.602 111.211L166.781 109.763L166.781 109.19L167.795 110.463L168.106 109.252Z" fill="#D38200"/>
<path d="M167.991 119.26L168.305 120.902L169.317 121.027L169.317 121.6L168.498 121.917L168.812 122.985L168.812 123.558L167.991 122.111L167.173 122.427L167.173 121.854L167.487 121.218L166.666 119.771L166.666 119.198L167.68 120.471L167.991 119.26Z" fill="#D38200"/>
<path d="M172.171 130.152L172.484 131.794L173.496 131.919L173.496 132.492L172.678 132.809L172.991 133.874L172.991 134.451L172.171 133.003L171.352 133.32L171.352 132.743L171.666 132.111L170.845 130.663L170.845 130.09L171.86 131.363L172.171 130.152Z" fill="#D38200"/>
<path d="M184.765 112.565L184.454 113.776L183.44 112.503L183.44 113.076L184.261 114.524L183.947 115.156L183.947 115.733L184.765 115.416L185.586 116.864L185.586 116.287L185.273 115.222L186.091 114.905L186.091 114.332L185.079 114.207L184.765 112.565Z" fill="#D38200"/>
<path d="M188.68 123.449L188.367 124.658L187.355 123.387L187.355 123.96L188.173 125.406L187.86 126.042L187.86 126.615L188.68 126.3L189.499 127.746L189.499 127.173L189.185 126.104L190.006 125.789L190.006 125.216L188.991 125.089L188.68 123.449Z" fill="#D38200"/>
<path d="M188.796 133.616L188.482 134.825L187.47 133.554L187.47 134.127L188.288 135.573L187.975 136.209L187.975 136.782L188.796 136.467L189.614 137.913L189.614 137.34L189.3 136.271L190.121 135.956L190.121 135.383L189.107 135.256L188.796 133.616Z" fill="#D38200"/>
<path d="M184.616 138.74L184.302 139.949L183.291 138.678L183.291 139.251L184.109 140.697L183.795 141.329L183.795 141.906L184.616 141.591L185.434 143.037L185.434 142.46L185.121 141.395L185.941 141.08L185.941 140.507L184.927 140.38L184.616 138.74Z" fill="#D38200"/>
<path d="M184.616 138.164L184.927 139.804L185.941 140.504L185.121 140.819L185.434 142.46L184.616 141.014L183.795 141.329L184.109 140.12L183.291 138.674L184.302 139.373L184.616 138.164Z" fill="#FFF176"/>
<path d="M188.795 133.043L189.107 134.683L190.121 135.383L189.3 135.698L189.614 137.339L188.795 135.893L187.975 136.209L188.288 134.999L187.47 133.553L188.482 134.252L188.795 133.043Z" fill="#FFF176"/>
<path d="M188.68 122.876L188.991 124.516L190.006 125.216L189.185 125.531L189.498 127.173L188.68 125.727L187.86 126.042L188.173 124.833L187.355 123.387L188.367 124.085L188.68 122.876Z" fill="#FFF176"/>
<path d="M184.765 111.989L185.079 113.63L186.091 114.329L185.273 114.645L185.586 116.287L184.765 114.839L183.947 115.156L184.261 113.947L183.44 112.499L184.454 113.199L184.765 111.989Z" fill="#FFF176"/>
<path d="M178.406 137.61L178.719 139.252L179.731 139.377L179.731 139.95L178.913 140.267L179.226 141.336L179.226 141.909L178.406 140.461L177.587 140.778L177.587 140.205L177.901 139.569L177.08 138.121L177.08 137.548L178.094 138.821L178.406 137.61Z" fill="#D38200"/>
<path d="M178.406 136.849L178.719 138.49L179.731 139.189L178.913 139.505L179.226 141.147L178.406 139.699L177.587 140.016L177.901 138.807L177.08 137.359L178.094 138.059L178.406 136.849Z" fill="#FFF176"/>
<path d="M178.406 105.108L178.719 106.75L179.731 106.875L179.731 107.448L178.913 107.765L179.226 108.834L179.226 109.407L178.406 107.959L177.587 108.276L177.587 107.703L177.901 107.067L177.08 105.619L177.08 105.046L178.094 106.319L178.406 105.108Z" fill="#D38200"/>
<path d="M178.406 104.535L178.719 106.177L179.731 106.875L178.913 107.192L179.226 108.834L178.406 107.386L177.587 107.703L177.901 106.494L177.08 105.046L178.094 105.746L178.406 104.535Z" fill="#FFF176"/>
<path d="M172.171 129.576L171.86 130.786L170.845 130.087L171.666 131.534L171.353 132.743L172.171 132.427L172.992 133.874L172.678 132.232L173.496 131.916L172.484 131.218L172.171 129.576Z" fill="#FFF176"/>
<path d="M167.991 118.687L167.68 119.897L166.666 119.198L167.487 120.645L167.173 121.854L167.991 121.538L168.812 122.985L168.498 121.343L169.317 121.027L168.305 120.329L167.991 118.687Z" fill="#FFF176"/>
<path d="M168.106 108.679L167.795 109.89L166.781 109.19L167.602 110.638L167.288 111.847L168.106 111.53L168.927 112.978L168.614 111.336L169.432 111.019L168.42 110.321L168.106 108.679Z" fill="#FFF176"/>
<path d="M172.021 103.195L171.708 104.404L170.696 103.705L171.514 105.151L171.201 106.36L172.021 106.045L172.84 107.491L172.526 105.85L173.347 105.535L172.332 104.835L172.021 103.195Z" fill="#FFF176"/>
<path d="M141.956 77.7113C146.443 80.8077 153.564 80.9144 157.86 77.9497C162.157 74.985 162.002 70.0715 157.515 66.9752C153.028 63.8788 145.907 63.7721 141.611 66.7368C137.314 69.7015 137.469 74.6149 141.956 77.7113Z" fill="#D68F30"/>
<path d="M140.143 68.5124L139.348 69.0608C139.223 69.2645 139.11 69.4731 139.013 69.683L140.426 68.7078L140.143 68.5124Z" fill="#BC6F00"/>
<path d="M139.573 70.1839L138.618 70.8428C138.578 71.0267 138.545 71.2117 138.523 71.3969L139.927 70.4283L139.573 70.1839Z" fill="#BC6F00"/>
<path d="M139.552 71.8913L138.523 72.6016C138.542 72.7778 138.571 72.9533 138.608 73.1288L139.977 72.1845L139.552 71.8913Z" fill="#BC6F00"/>
<path d="M140.114 73.5873L139.007 74.351C139.073 74.4973 139.145 74.6428 139.223 74.7883L140.539 73.8806L140.114 73.5873Z" fill="#BC6F00"/>
<path d="M141.223 75.1856L140.051 75.9942C140.153 76.1171 140.261 76.2383 140.373 76.3585L141.648 75.4788L141.223 75.1856Z" fill="#BC6F00"/>
<path d="M143.018 76.7127L141.769 77.5746C141.831 77.6196 141.893 77.6654 141.958 77.7104C142.036 77.7641 142.118 77.8151 142.195 77.8669L143.443 77.0059L143.018 76.7127Z" fill="#BC6F00"/>
<path d="M145.241 77.9451L143.966 78.8248C144.14 78.902 144.317 78.9754 144.495 79.046L145.666 78.2384L145.241 77.9451Z" fill="#BC6F00"/>
<path d="M147.561 78.7018L146.244 79.6105C146.455 79.6643 146.668 79.7125 146.882 79.7568L147.986 78.995L147.561 78.7018Z" fill="#BC6F00"/>
<path d="M150.023 79.081L148.653 80.0262C148.908 80.0516 149.163 80.0707 149.42 80.0836L150.448 79.3743L150.023 79.081Z" fill="#BC6F00"/>
<path d="M152.919 79.3521L152.565 79.1077L151.161 80.0763C151.431 80.0603 151.7 80.0385 151.967 80.0091L152.919 79.3521Z" fill="#BC6F00"/>
<path d="M155.341 78.9514L155.058 78.7559L153.642 79.733C153.95 79.663 154.255 79.5834 154.553 79.4951L155.341 78.9514Z" fill="#BC6F00"/>
<path d="M142.656 77.2284C147.143 80.3248 154.264 80.4316 158.56 77.4668C162.857 74.5021 162.702 69.5887 158.215 66.4923C153.728 63.3959 146.607 63.2892 142.311 66.2539C138.014 69.2186 138.169 74.1321 142.656 77.2284Z" fill="#FFF176"/>
<path d="M143.349 76.7502C147.437 79.5707 153.923 79.668 157.836 76.9674C161.75 74.2668 161.609 69.791 157.522 66.9705C153.434 64.15 146.948 64.0527 143.034 66.7533C139.121 69.4539 139.262 73.9297 143.349 76.7502Z" fill="#F2BC1A"/>
<path d="M142.749 66.9307C143.63 66.2507 144.745 65.7138 145.972 65.3363C147.21 64.9705 148.571 64.7805 149.949 64.7735C152.715 64.7614 155.516 65.5807 157.535 66.9611C159.534 68.3556 160.725 70.2887 160.703 72.1959C160.695 73.1472 160.417 74.0859 159.889 74.9395C159.342 75.788 158.565 76.5566 157.578 77.1634L157.55 77.1438C158.478 76.4996 159.207 75.731 159.695 74.8811C160.183 74.0315 160.421 73.1173 160.398 72.1895C160.373 71.2618 160.084 70.3387 159.547 69.4726C159.01 68.6075 158.233 67.8171 157.263 67.1474C156.292 66.4776 155.147 65.9417 153.893 65.5708C152.638 65.2003 151.3 65.0009 149.956 64.9839C148.611 64.9671 147.286 65.1318 146.055 65.4686C144.823 65.8059 143.71 66.3089 142.776 66.9493L142.749 66.9307Z" fill="#E08F00"/>
<path d="M158.213 66.4938C153.725 63.3973 146.605 63.2906 142.309 66.2554C138.012 69.2202 138.167 74.1335 142.654 77.2299C147.141 80.3264 154.262 80.4331 158.558 77.4683C162.855 74.5035 162.7 69.5903 158.213 66.4938ZM143.347 76.7517C139.259 73.9309 139.118 69.4557 143.032 66.7548C146.948 64.053 153.433 64.1502 157.521 66.9711C161.609 69.7919 161.75 74.2671 157.836 76.9679C153.922 79.6688 147.435 79.5725 143.347 76.7517Z" fill="#FFF176"/>
<path d="M152.186 65.5681L151.832 66.06L152.633 66.3168L152.419 66.4647L151.615 66.3647L151.479 66.7088L151.263 66.8576L151.12 66.3037L150.316 66.2037L150.531 66.0549L151.03 65.961L150.886 65.4071L151.101 65.2593L151.471 65.8108L152.186 65.5681Z" fill="#D38200"/>
<path d="M146.863 66.1174L146.511 66.6103L147.31 66.8661L147.096 67.014L146.293 66.915L146.156 67.26L145.941 67.4079L145.797 66.853L144.994 66.754L145.208 66.6061L145.708 66.5113L145.563 65.9564L145.778 65.8086L146.15 66.3611L146.863 66.1174Z" fill="#D38200"/>
<path d="M143.024 68.6742L142.673 69.1671L143.472 69.4229L143.258 69.5707L142.455 69.4717L142.318 69.8167L142.103 69.9646L141.958 69.4098L141.156 69.3107L141.37 69.1628L141.87 69.068L141.725 68.5132L141.939 68.3653L142.311 68.9178L143.024 68.6742Z" fill="#D38200"/>
<path d="M142.446 72.408L142.094 72.9009L142.894 73.1567L142.679 73.3046L141.877 73.2056L141.741 73.5497L141.525 73.6985L141.38 73.1436L140.577 73.0446L140.793 72.8958L141.292 72.8019L141.147 72.247L141.361 72.0992L141.733 72.6517L142.446 72.408Z" fill="#D38200"/>
<path d="M159.554 70.6526L158.841 70.8963L158.469 70.3438L158.255 70.4916L158.4 71.0465L157.901 71.1404L157.685 71.2892L158.488 71.3882L158.633 71.9431L158.849 71.7943L158.985 71.4502L159.787 71.5492L160.002 71.4013L159.202 71.1455L159.554 70.6526Z" fill="#D38200"/>
<path d="M158.758 74.3258L158.044 74.5685L157.673 74.017L157.459 74.1649L157.602 74.7187L157.102 74.8135L156.888 74.9614L157.692 75.0614L157.835 75.6153L158.05 75.4674L158.187 75.1224L158.991 75.2224L159.206 75.0746L158.405 74.8178L158.758 74.3258Z" fill="#D38200"/>
<path d="M155.053 76.9745L154.338 77.2171L153.968 76.6656L153.753 76.8135L153.897 77.3673L153.397 77.4622L153.183 77.61L153.987 77.71L154.13 78.2639L154.345 78.1161L154.482 77.771L155.286 77.871L155.5 77.7232L154.7 77.4664L155.053 76.9745Z" fill="#D38200"/>
<path d="M149.642 77.3734L148.927 77.616L148.557 77.0645L148.342 77.2124L148.486 77.7662L147.987 77.8601L147.772 78.0089L148.576 78.1089L148.719 78.6628L148.935 78.514L149.071 78.1699L149.875 78.2699L150.089 78.1221L149.289 77.8653L149.642 77.3734Z" fill="#D38200"/>
<path d="M149.857 77.2245L149.504 77.7164L150.091 78.1211L149.287 78.0211L148.935 78.514L148.791 77.9601L147.987 77.8601L148.702 77.6174L148.558 77.0635L149.143 77.4672L149.857 77.2245Z" fill="#FFF176"/>
<path d="M155.267 76.8266L154.914 77.3185L155.5 77.7232L154.696 77.6231L154.345 78.116L154.201 77.5622L153.397 77.4621L154.111 77.2195L153.968 76.6656L154.553 77.0693L155.267 76.8266Z" fill="#FFF176"/>
<path d="M158.972 74.178L158.619 74.6699L159.205 75.0746L158.401 74.9746L158.05 75.4675L157.906 74.9136L157.102 74.8136L157.816 74.5709L157.673 74.017L158.258 74.4207L158.972 74.178Z" fill="#FFF176"/>
<path d="M159.77 70.5039L159.418 70.9968L160.003 71.4005L159.2 71.3014L158.849 71.7943L158.704 71.2395L157.901 71.1404L158.615 70.8977L158.47 70.3429L159.057 70.7475L159.77 70.5039Z" fill="#FFF176"/>
<path d="M144.871 75.7098L144.52 76.2027L145.319 76.4585L145.104 76.6063L144.302 76.5073L144.164 76.8523L143.95 77.0002L143.805 76.4453L143.003 76.3463L143.217 76.1984L143.717 76.1036L143.572 75.5488L143.786 75.4009L144.158 75.9534L144.871 75.7098Z" fill="#D38200"/>
<path d="M145.156 75.5132L144.804 76.0061L145.389 76.4098L144.587 76.3108L144.235 76.8037L144.09 76.2488L143.287 76.1498L144.002 75.9071L143.857 75.3522L144.443 75.7569L145.156 75.5132Z" fill="#FFF176"/>
<path d="M157.024 67.3236L156.673 67.8165L157.472 68.0723L157.258 68.2201L156.455 68.1211L156.317 68.4661L156.103 68.614L155.958 68.0591L155.156 67.9601L155.37 67.8122L155.87 67.7174L155.725 67.1626L155.939 67.0147L156.311 67.5672L157.024 67.3236Z" fill="#D38200"/>
<path d="M157.239 67.1757L156.887 67.6686L157.472 68.0722L156.669 67.9732L156.318 68.4661L156.173 67.9112L155.37 67.8122L156.084 67.5695L155.939 67.0147L156.526 67.4193L157.239 67.1757Z" fill="#FFF176"/>
<path d="M142.662 72.2593L141.949 72.5029L141.362 72.0983L141.507 72.6531L140.793 72.8958L141.596 72.9948L141.741 73.5497L142.092 73.0568L142.895 73.1558L142.31 72.7522L142.662 72.2593Z" fill="#FFF176"/>
<path d="M143.239 68.5263L142.526 68.77L141.939 68.3653L142.084 68.9202L141.37 69.1629L142.173 69.2619L142.318 69.8167L142.669 69.3238L143.472 69.4229L142.887 69.0192L143.239 68.5263Z" fill="#FFF176"/>
<path d="M147.077 65.9697L146.364 66.2133L145.777 65.8087L145.922 66.3635L145.208 66.6062L146.011 66.7053L146.156 67.2601L146.507 66.7672L147.31 66.8662L146.725 66.4626L147.077 65.9697Z" fill="#FFF176"/>
<path d="M152.401 65.4193L151.687 65.662L151.102 65.2584L151.246 65.8122L150.531 66.0549L151.335 66.1549L151.479 66.7088L151.831 66.2159L152.635 66.3159L152.048 65.9113L152.401 65.4193Z" fill="#FFF176"/>
<path d="M224.665 69.0718C232.695 63.5309 232.692 54.5456 224.659 49.0024C216.626 43.4593 203.605 43.4574 195.575 48.9982C187.546 54.539 187.548 63.5244 195.581 69.0675C203.614 74.6107 216.636 74.6126 224.665 69.0718Z" fill="#D68F30"/>
<path d="M200.348 70.9926L201.834 72.018C202.379 72.1842 202.937 72.3348 203.497 72.4661L200.855 70.6428L200.348 70.9926Z" fill="#BC6F00"/>
<path d="M204.803 71.7787L206.588 73.0106C207.077 73.0684 207.569 73.1175 208.061 73.1525L205.437 71.3415L204.803 71.7787Z" fill="#BC6F00"/>
<path d="M209.331 71.8738L211.255 73.2019C211.722 73.1845 212.186 73.1548 212.65 73.1146L210.091 71.3491L209.331 71.8738Z" fill="#BC6F00"/>
<path d="M213.805 71.2324L215.874 72.6602C216.26 72.5833 216.642 72.4976 217.025 72.405L214.565 70.7077L213.805 71.2324Z" fill="#BC6F00"/>
<path d="M217.998 69.8964L220.189 71.4082C220.511 71.2841 220.828 71.1529 221.142 71.0165L218.758 69.3717L217.998 69.8964Z" fill="#BC6F00"/>
<path d="M221.975 67.691L224.311 69.3026C224.427 69.2256 224.546 69.1504 224.663 69.07C224.802 68.9738 224.934 68.8723 225.068 68.7761L222.736 67.1663L221.975 67.691Z" fill="#BC6F00"/>
<path d="M225.153 64.9344L227.537 66.5792C227.735 66.3623 227.922 66.1419 228.102 65.9198L225.914 64.4097L225.153 64.9344Z" fill="#BC6F00"/>
<path d="M227.067 62.0359L229.529 63.7349C229.663 63.4708 229.782 63.2031 229.891 62.9355L227.827 61.5112L227.067 62.0359Z" fill="#BC6F00"/>
<path d="M227.973 58.9431L230.534 60.7104C230.591 60.3896 230.632 60.0675 230.656 59.7447L228.734 58.4184L227.973 58.9431Z" fill="#BC6F00"/>
<path d="M228.576 55.2974L227.942 55.7346L230.566 57.5457C230.513 57.2045 230.445 56.8634 230.356 56.5257L228.576 55.2974Z" fill="#BC6F00"/>
<path d="M227.416 52.2235L226.909 52.5733L229.557 54.4001C229.359 54.0082 229.135 53.6198 228.889 53.2401L227.416 52.2235Z" fill="#BC6F00"/>
<path d="M223.357 68.1688C231.387 62.628 231.384 53.6426 223.351 48.0995C215.318 42.5563 202.296 42.5544 194.267 48.0953C186.237 53.6361 186.24 62.6214 194.273 68.1646C202.306 73.7077 215.327 73.7096 223.357 68.1688Z" fill="#FFF176"/>
<path d="M222.061 67.2747C229.375 62.2275 229.373 54.0426 222.055 48.9933C214.738 43.944 202.877 43.9422 195.562 48.9894C188.248 54.0367 188.251 62.2215 195.568 67.2709C202.885 72.3202 214.747 72.3219 222.061 67.2747Z" fill="#F2BC1A"/>
<path d="M196.05 67.6383C194.211 66.4992 192.743 65.0697 191.693 63.5055C190.673 61.9274 190.115 60.2024 190.041 58.4617C189.898 54.9699 191.958 51.4661 195.537 48.9719C199.154 46.504 204.232 45.079 209.29 45.1829C211.812 45.2305 214.312 45.6193 216.596 46.3211C218.868 47.0457 220.937 48.0572 222.585 49.3275L222.535 49.3625C220.789 48.165 218.722 47.2139 216.449 46.5625C214.177 45.9132 211.744 45.5754 209.285 45.5678C206.826 45.5616 204.39 45.8894 202.115 46.5325C199.843 47.1765 197.779 48.1252 196.042 49.3237C194.305 50.5222 192.93 51.9467 191.997 53.5147C191.065 55.0843 190.59 56.7653 190.599 58.4618C190.608 60.1587 191.098 61.8382 192.04 63.4059C192.984 64.9743 194.363 66.4007 196.098 67.6051L196.05 67.6383Z" fill="#E08F00"/>
<path d="M194.269 48.0968C186.239 53.6378 186.242 62.6228 194.275 68.1662C202.308 73.7095 215.329 73.7114 223.359 68.1704C231.389 62.6294 231.386 53.6444 223.353 48.1011C215.32 42.5577 202.299 42.5558 194.269 48.0968ZM222.063 67.2763C214.748 72.324 202.889 72.3223 195.57 67.2724C188.25 62.2208 188.247 54.037 195.562 48.9892C202.877 43.9415 214.737 43.9432 222.055 48.9931C229.374 54.043 229.379 62.2285 222.063 67.2763Z" fill="#FFF176"/>
<path d="M192.058 55.67L193.377 56.1355L194.026 55.1349L194.426 55.4114L194.193 56.4225L195.111 56.6081L195.514 56.8863L194.052 57.0453L193.819 58.0564L193.415 57.7782L193.147 57.1449L191.684 57.3039L191.283 57.0274L192.731 56.5815L192.058 55.67Z" fill="#D38200"/>
<path d="M193.729 62.4124L195.05 62.8762L195.696 61.8774L196.096 62.1538L195.866 63.1632L196.786 63.3505L197.187 63.627L195.722 63.7877L195.491 64.7971L195.091 64.5207L194.819 63.8856L193.354 64.0463L192.953 63.7698L194.403 63.3222L193.729 62.4124Z" fill="#D38200"/>
<path d="M200.662 67.3608L201.983 67.8246L202.629 66.8258L203.029 67.1022L202.799 68.1116L203.719 68.2989L204.12 68.5754L202.655 68.7361L202.424 69.7455L202.024 69.469L201.752 68.834L200.287 68.9947L199.886 68.7182L201.336 68.2706L200.662 67.3608Z" fill="#D38200"/>
<path d="M210.585 68.2405L211.906 68.7043L212.552 67.7055L212.952 67.982L212.722 68.9913L213.64 69.1769L214.043 69.4551L212.578 69.6159L212.347 70.6252L211.944 70.347L211.675 69.7137L210.21 69.8744L209.809 69.598L211.259 69.1503L210.585 68.2405Z" fill="#D38200"/>
<path d="M205.244 46.5714L205.918 47.4812L204.468 47.9288L204.869 48.2053L206.334 48.0445L206.603 48.6779L207.007 48.9561L207.237 47.9467L208.702 47.786L208.299 47.5078L207.381 47.3222L207.612 46.3128L207.211 46.0363L206.565 47.0352L205.244 46.5714Z" fill="#D38200"/>
<path d="M215.015 47.7239L215.687 48.6355L214.239 49.0814L214.64 49.3578L216.103 49.1988L216.374 49.8339L216.775 50.1104L217.008 49.0993L218.471 48.9403L218.07 48.6638L217.15 48.4765L217.383 47.4654L216.982 47.1889L216.333 48.1895L215.015 47.7239Z" fill="#D38200"/>
<path d="M222.186 52.5079L222.858 53.4194L221.411 53.8653L221.811 54.1418L223.274 53.9828L223.546 54.6179L223.946 54.8944L224.179 53.8832L225.642 53.7242L225.241 53.4478L224.321 53.2605L224.554 52.2493L224.153 51.9729L223.505 52.9734L222.186 52.5079Z" fill="#D38200"/>
<path d="M223.461 59.3553L224.133 60.2669L222.685 60.7128L223.086 60.9892L224.549 60.8303L224.818 61.4636L225.221 61.7418L225.454 60.7307L226.917 60.5717L226.514 60.2935L225.596 60.1079L225.829 59.0968L225.428 58.8203L224.779 59.8209L223.461 59.3553Z" fill="#D38200"/>
<path d="M223.058 59.077L224.376 59.5426L225.425 58.8185L225.193 59.8296L226.514 60.2934L225.051 60.4524L224.818 61.4635L224.146 60.552L222.683 60.711L223.73 59.9886L223.058 59.077Z" fill="#FFF176"/>
<path d="M221.785 52.2314L223.104 52.697L224.153 51.9729L223.92 52.984L225.241 53.4478L223.778 53.6068L223.546 54.6179L222.873 53.7064L221.411 53.8653L222.457 53.143L221.785 52.2314Z" fill="#FFF176"/>
<path d="M214.614 47.4475L215.933 47.913L216.982 47.1889L216.749 48.2001L218.07 48.6638L216.607 48.8228L216.375 49.834L215.702 48.9224L214.24 49.0814L215.287 48.359L214.614 47.4475Z" fill="#FFF176"/>
<path d="M204.841 46.2932L206.162 46.757L207.208 46.0346L206.978 47.044L208.299 47.5078L206.834 47.6685L206.603 48.6779L205.931 47.7663L204.466 47.9271L205.515 47.203L204.841 46.2932Z" fill="#FFF176"/>
<path d="M219.241 65.3115L220.562 65.7752L221.209 64.7764L221.609 65.0529L221.379 66.0623L222.299 66.2496L222.7 66.5261L221.235 66.6868L221.004 67.6962L220.603 67.4197L220.332 66.7846L218.867 66.9454L218.466 66.6689L219.916 66.2212L219.241 65.3115Z" fill="#D38200"/>
<path d="M218.709 64.944L220.03 65.4078L221.077 64.6855L220.846 65.6948L222.167 66.1586L220.702 66.3194L220.472 67.3287L219.8 66.4172L218.334 66.5779L219.384 65.8538L218.709 64.944Z" fill="#FFF176"/>
<path d="M196.519 49.6316L197.84 50.0954L198.486 49.0966L198.886 49.3731L198.656 50.3825L199.576 50.5698L199.977 50.8462L198.512 51.007L198.281 52.0164L197.881 51.7399L197.609 51.1048L196.144 51.2655L195.743 50.9891L197.193 50.5414L196.519 49.6316Z" fill="#D38200"/>
<path d="M196.118 49.3552L197.439 49.8189L198.486 49.0966L198.255 50.106L199.576 50.5698L198.111 50.7305L197.881 51.7399L197.208 50.8283L195.743 50.9891L196.793 50.265L196.118 49.3552Z" fill="#FFF176"/>
<path d="M210.182 67.9622L210.856 68.872L209.807 69.5961L211.272 69.4354L211.944 70.3469L212.175 69.3375L213.64 69.1768L212.319 68.713L212.549 67.7036L211.502 68.426L210.182 67.9622Z" fill="#FFF176"/>
<path d="M200.261 67.0843L200.936 67.9941L199.886 68.7182L201.352 68.5575L202.024 69.469L202.254 68.4596L203.719 68.2989L202.398 67.8351L202.629 66.8257L201.582 67.5481L200.261 67.0843Z" fill="#FFF176"/>
<path d="M193.328 62.136L194.003 63.0458L192.953 63.7699L194.419 63.6092L195.091 64.5207L195.321 63.5113L196.787 63.3506L195.466 62.8868L195.696 61.8774L194.649 62.5998L193.328 62.136Z" fill="#FFF176"/>
<path d="M191.655 55.3917L192.328 56.3033L191.281 57.0256L192.743 56.8666L193.416 57.7782L193.649 56.767L195.111 56.6081L193.79 56.1443L194.023 55.1331L192.974 55.8573L191.655 55.3917Z" fill="#FFF176"/>
<path d="M223.437 114.773C228.226 111.468 232.108 102.781 232.108 95.3691C232.108 87.9574 228.226 84.6279 223.437 87.9327C218.648 91.2374 214.765 99.9248 214.765 107.337C214.765 114.748 218.648 118.078 223.437 114.773Z" fill="#D68F30"/>
<path d="M215.355 110.416L215.355 111.787C215.446 112.087 215.547 112.375 215.657 112.645L215.657 110.207L215.355 110.416Z" fill="#BC6F00"/>
<path d="M216.344 112.314L216.344 113.961C216.465 114.142 216.59 114.315 216.722 114.475L216.722 112.053L216.344 112.314Z" fill="#BC6F00"/>
<path d="M217.653 113.563L217.653 115.339C217.8 115.441 217.951 115.531 218.106 115.611L218.106 113.25L217.653 113.563Z" fill="#BC6F00"/>
<path d="M219.264 114.087L219.264 115.996C219.412 116.02 219.564 116.035 219.718 116.043L219.718 113.774L219.264 114.087Z" fill="#BC6F00"/>
<path d="M221.092 113.867L221.092 115.888C221.242 115.85 221.393 115.804 221.546 115.753L221.546 113.554L221.092 113.867Z" fill="#BC6F00"/>
<path d="M223.231 112.751L223.231 114.906C223.299 114.861 223.367 114.819 223.437 114.771C223.52 114.713 223.603 114.649 223.685 114.59L223.685 112.438L223.231 112.751Z" fill="#BC6F00"/>
<path d="M225.37 110.898L225.37 113.097C225.523 112.938 225.674 112.773 225.824 112.604L225.824 110.585L225.37 110.898Z" fill="#BC6F00"/>
<path d="M227.194 108.585L227.194 110.856C227.348 110.635 227.499 110.407 227.647 110.176L227.647 108.272L227.194 108.585Z" fill="#BC6F00"/>
<path d="M228.801 105.826L228.801 108.189C228.956 107.894 229.107 107.593 229.254 107.287L229.254 105.513L228.801 105.826Z" fill="#BC6F00"/>
<path d="M230.556 102.456L230.178 102.716L230.178 105.138C230.309 104.795 230.436 104.447 230.556 104.098L230.556 102.456Z" fill="#BC6F00"/>
<path d="M231.538 99.1876L231.236 99.3963L231.236 101.839C231.346 101.409 231.448 100.977 231.538 100.547L231.538 99.1876Z" fill="#BC6F00"/>
<path d="M223.437 113.566C228.226 110.261 232.108 101.574 232.108 94.1619C232.108 86.7501 228.226 83.4207 223.437 86.7254C218.648 90.0301 214.765 98.7175 214.765 106.129C214.765 113.541 218.648 116.871 223.437 113.566Z" fill="#FFF176"/>
<path d="M223.437 112.37C227.799 109.36 231.336 101.446 231.336 94.6949C231.336 87.9434 227.799 84.9106 223.437 87.9209C219.074 90.9312 215.538 98.8447 215.538 105.596C215.538 112.348 219.074 115.381 223.437 112.37Z" fill="#F2BC1A"/>
<path d="M215.523 106.075C215.467 104.503 215.647 102.746 216.009 100.966C216.387 99.1795 216.966 97.3692 217.697 95.6674C219.163 92.255 221.292 89.3942 223.437 87.8975C225.582 86.4359 227.712 86.3558 229.175 87.7488C229.907 88.4395 230.485 89.4541 230.863 90.7164C231.227 91.9975 231.407 93.5041 231.349 95.1534L231.319 95.1743C231.316 93.5705 231.111 92.1228 230.714 90.9123C230.317 89.7039 229.738 88.7553 229.008 88.1196C228.277 87.4854 227.409 87.1797 226.453 87.2201C225.497 87.2621 224.471 87.6517 223.435 88.3666C222.399 89.0814 221.374 90.1072 220.418 91.3845C219.462 92.6639 218.593 94.1676 217.863 95.81C217.132 97.453 216.553 99.2018 216.156 100.958C215.76 102.716 215.554 104.447 215.551 106.055L215.523 106.075Z" fill="#E08F00"/>
<path d="M223.437 86.728C218.648 90.0328 214.765 98.7199 214.765 106.132C214.765 113.544 218.648 116.873 223.437 113.568C228.226 110.264 232.108 101.576 232.108 94.1645C232.108 86.7525 228.226 83.4232 223.437 86.728ZM223.437 112.373C219.074 115.384 215.538 112.351 215.538 105.599C215.538 98.8443 219.074 90.9319 223.437 87.9212C227.8 84.9106 231.336 87.943 231.336 94.6952C231.336 101.447 227.8 109.362 223.437 112.373Z" fill="#FFF176"/>
<path d="M219.505 93.4839L219.697 94.2709L220.323 93.4694L220.323 93.8391L219.816 94.7571L220.01 95.171L220.01 95.543L219.505 95.3229L218.998 96.2409L218.998 95.8689L219.192 95.1879L218.687 94.9678L218.687 94.5981L219.311 94.537L219.505 93.4839Z" fill="#D38200"/>
<path d="M217.089 100.429L217.282 101.215L217.907 100.415L217.907 100.784L217.402 101.701L217.595 102.117L217.595 102.487L217.089 102.268L216.584 103.185L216.584 102.815L216.777 102.132L216.271 101.913L216.271 101.543L216.897 101.481L217.089 100.429Z" fill="#D38200"/>
<path d="M217.018 106.985L217.211 107.771L217.836 106.97L217.836 107.34L217.331 108.257L217.524 108.673L217.524 109.043L217.018 108.824L216.513 109.741L216.513 109.371L216.706 108.688L216.2 108.469L216.2 108.099L216.826 108.037L217.018 106.985Z" fill="#D38200"/>
<path d="M219.597 110.371L219.79 111.157L220.415 110.357L220.415 110.726L219.91 111.643L220.103 112.057L220.103 112.429L219.597 112.21L219.092 113.127L219.092 112.755L219.285 112.074L218.779 111.855L218.779 111.485L219.405 111.423L219.597 110.371Z" fill="#D38200"/>
<path d="M227.369 88.0573L227.177 89.1093L226.551 89.1715L226.551 89.5412L227.058 89.7602L226.864 90.4412L226.864 90.8132L227.369 89.8963L227.875 90.1153L227.875 89.7433L227.682 89.3294L228.187 88.4124L228.187 88.0428L227.562 88.8433L227.369 88.0573Z" fill="#D38200"/>
<path d="M229.785 91.6684L229.591 92.7214L228.967 92.7826L228.967 93.1523L229.472 93.3724L229.278 94.0557L229.278 94.4254L229.785 93.5074L230.29 93.7275L230.29 93.3578L230.096 92.9415L230.603 92.0235L230.603 91.6539L229.977 92.4554L229.785 91.6684Z" fill="#D38200"/>
<path d="M229.856 98.1261L229.662 99.1791L229.038 99.2403L229.038 99.6099L229.543 99.8301L229.349 100.513L229.349 100.883L229.856 99.9651L230.361 100.185L230.361 99.8155L230.167 99.3992L230.674 98.4812L230.674 98.1115L230.048 98.9131L229.856 98.1261Z" fill="#D38200"/>
<path d="M227.277 105.072L227.083 106.125L226.459 106.186L226.459 106.556L226.964 106.776L226.77 107.457L226.77 107.829L227.277 106.911L227.782 107.131L227.782 106.759L227.588 106.345L228.095 105.427L228.095 105.057L227.469 105.859L227.277 105.072Z" fill="#D38200"/>
<path d="M227.277 104.7L227.469 105.487L228.095 105.055L227.588 105.973L227.782 106.759L227.277 106.539L226.77 107.457L226.964 106.404L226.459 106.184L227.083 105.753L227.277 104.7Z" fill="#FFF176"/>
<path d="M229.856 97.7564L230.048 98.5434L230.674 98.1115L230.167 99.0295L230.361 99.8154L229.856 99.5953L229.349 100.513L229.543 99.4603L229.038 99.2402L229.662 98.8094L229.856 97.7564Z" fill="#FFF176"/>
<path d="M229.785 91.2989L229.977 92.0859L230.603 91.654L230.096 92.572L230.29 93.358L229.785 93.1379L229.278 94.0559L229.472 93.0029L228.967 92.7828L229.591 92.3519L229.785 91.2989Z" fill="#FFF176"/>
<path d="M227.369 87.6853L227.562 88.4713L228.187 88.0404L227.682 88.9574L227.875 89.7433L227.369 89.5243L226.864 90.4412L227.058 89.3882L226.551 89.1691L227.177 88.7373L227.369 87.6853Z" fill="#FFF176"/>
<path d="M223.444 109.752L223.638 110.538L224.262 109.737L224.262 110.107L223.757 111.024L223.951 111.44L223.951 111.81L223.444 111.591L222.939 112.508L222.939 112.138L223.133 111.455L222.627 111.236L222.627 110.866L223.252 110.804L223.444 109.752Z" fill="#D38200"/>
<path d="M223.444 109.26L223.638 110.046L224.262 109.615L223.757 110.532L223.951 111.318L223.444 111.099L222.939 112.016L223.133 110.963L222.627 110.744L223.252 110.312L223.444 109.26Z" fill="#FFF176"/>
<path d="M223.444 88.7861L223.638 89.5721L224.262 88.7716L224.262 89.1412L223.757 90.0582L223.951 90.4745L223.951 90.8441L223.444 90.6251L222.939 91.542L222.939 91.1724L223.133 90.489L222.627 90.2699L222.627 89.9003L223.252 89.8381L223.444 88.7861Z" fill="#D38200"/>
<path d="M223.444 88.4164L223.638 89.2023L224.262 88.7715L223.757 89.6885L223.951 90.4744L223.444 90.2553L222.939 91.1723L223.133 90.1193L222.627 89.9002L223.252 89.4683L223.444 88.4164Z" fill="#FFF176"/>
<path d="M219.597 109.999L219.405 111.051L218.779 111.483L219.286 111.702L219.092 112.755L219.597 111.838L220.103 112.057L219.91 111.271L220.415 110.354L219.79 110.785L219.597 109.999Z" fill="#FFF176"/>
<path d="M217.018 106.615L216.826 107.667L216.2 108.099L216.706 108.318L216.513 109.371L217.018 108.454L217.524 108.673L217.331 107.887L217.836 106.97L217.211 107.401L217.018 106.615Z" fill="#FFF176"/>
<path d="M217.089 100.06L216.897 101.112L216.271 101.543L216.778 101.762L216.584 102.815L217.089 101.899L217.595 102.118L217.402 101.332L217.907 100.415L217.282 100.846L217.089 100.06Z" fill="#FFF176"/>
<path d="M219.505 93.112L219.311 94.165L218.687 94.5958L219.192 94.816L218.998 95.869L219.505 94.951L220.01 95.1711L219.816 94.3851L220.323 93.4671L219.697 93.899L219.505 93.112Z" fill="#FFF176"/>
<path d="M232.464 303.689C229.819 301.864 228.497 299.472 228.498 297.08C228.499 294.69 229.821 292.3 232.464 290.476L285.313 254.008C290.6 250.359 299.173 250.359 304.461 254.008L357.309 290.476C359.953 292.3 361.274 294.69 361.275 297.08C361.276 299.472 359.954 301.864 357.309 303.689L304.461 340.157C299.173 343.806 290.6 343.806 285.313 340.157L232.464 303.689Z" fill="#C4C4C4"/>
<path d="M304.461 239.059C299.173 235.41 290.6 235.41 285.313 239.059L285.313 254.008C290.6 250.359 299.173 250.359 304.461 254.008L304.461 239.059Z" fill="#C4C4C4"/>
<path d="M285.313 239.059L232.464 275.527L232.464 290.476L285.313 254.008L285.313 239.059Z" fill="#C4C4C4"/>
<path d="M357.31 275.527L304.461 239.059L304.461 254.008L357.31 290.476L357.31 275.527Z" fill="#C4C4C4"/>
<path d="M361.275 282.131C361.275 279.741 359.953 277.351 357.31 275.527L357.31 290.476C359.953 292.3 361.275 294.69 361.275 297.08L361.275 282.131Z" fill="#C4C4C4"/>
<path d="M228.498 282.131C228.499 279.741 229.821 277.351 232.464 275.527L232.464 290.476C229.821 292.3 228.499 294.69 228.498 297.08L228.498 282.131Z" fill="#C4C4C4"/>
<path d="M357.31 288.74C359.953 286.916 361.275 284.526 361.275 282.135L361.275 297.08C361.276 299.472 359.954 301.864 357.31 303.689L357.31 288.74Z" fill="#BA3FA4"/>
<path d="M232.464 288.74C229.821 286.916 228.499 284.526 228.498 282.135L228.498 297.08C228.497 299.472 229.819 301.864 232.464 303.689L232.464 288.74Z" fill="#4C17BC"/>
<path fill-rule="evenodd" clip-rule="evenodd" d="M232.464 288.74L285.313 325.208V325.208C290.6 328.857 299.173 328.857 304.461 325.208L357.309 288.74L357.309 303.689L304.461 340.157C299.173 343.806 290.6 343.806 285.313 340.157V340.157L232.464 303.689L232.464 288.74Z" fill="url(#paint24_linear)"/>
<rect width="87.4744" height="87.4744" rx="9" transform="matrix(0.823062 -0.567952 0.823062 0.567952 222.89 282.133)" fill="url(#paint25_linear)"/>
<rect width="69.5825" height="69.5825" rx="10" transform="matrix(0.823062 -0.567952 0.823062 0.567952 237.503 281.76)" fill="url(#paint26_linear)"/>
<path d="M30.9975 311.471C28.3529 309.646 27.031 307.254 27.0318 304.862C27.0325 302.472 28.3544 300.082 30.9975 298.258L83.8462 261.79C89.1338 258.141 97.7067 258.141 102.994 261.79L155.843 298.258C158.486 300.082 159.808 302.472 159.809 304.862C159.81 307.254 158.488 309.646 155.843 311.471L102.994 347.939C97.7067 351.588 89.1338 351.588 83.8462 347.939L30.9975 311.471Z" fill="#C4C4C4"/>
<path d="M102.994 246.841C97.7068 243.192 89.1339 243.192 83.8463 246.841L83.8463 261.789C89.1339 258.141 97.7068 258.141 102.994 261.789L102.994 246.841Z" fill="#C4C4C4"/>
<path d="M83.8462 246.841L30.9975 283.309L30.9975 298.258L83.8462 261.79L83.8462 246.841Z" fill="#C4C4C4"/>
<path d="M155.843 283.309L102.994 246.841L102.994 261.789L155.843 298.258L155.843 283.309Z" fill="#C4C4C4"/>
<path d="M159.809 289.913C159.808 287.523 158.486 285.133 155.843 283.309L155.843 298.258C158.486 300.081 159.808 302.472 159.809 304.862L159.809 289.913Z" fill="#C4C4C4"/>
<path d="M155.843 296.522C158.486 294.698 159.808 292.308 159.809 289.917L159.809 304.862C159.81 307.254 158.488 309.646 155.843 311.471L155.843 296.522Z" fill="#BA3FA4"/>
<path d="M30.9975 296.522C28.3544 294.698 27.0325 292.308 27.0318 289.917L27.0318 304.862C27.031 307.254 28.3529 309.646 30.9975 311.471L30.9975 296.522Z" fill="#4C17BC"/>
<path fill-rule="evenodd" clip-rule="evenodd" d="M83.8462 332.99L83.8462 332.99V332.99C89.1338 336.639 97.7067 336.639 102.994 332.99V347.939C97.7067 351.588 89.1338 351.588 83.8462 347.939V347.939L30.9974 311.471L30.9974 296.522L83.8462 332.99ZM102.994 332.99L155.843 296.522L155.843 311.471L102.994 347.939L102.994 332.99Z" fill="url(#paint27_linear)"/>
<rect width="87.4744" height="87.4744" rx="9" transform="matrix(0.823062 -0.567952 0.823062 0.567952 21.4234 289.915)" fill="url(#paint28_linear)"/>
<rect width="69.5825" height="69.5825" rx="10" transform="matrix(0.823062 -0.567952 0.823062 0.567952 35.0731 289.542)" fill="url(#paint29_linear)"/>
<path d="M132.253 361.139C130.411 359.868 129.49 358.202 129.49 356.535C129.491 354.87 130.412 353.205 132.253 351.934L169.071 326.528C172.755 323.986 178.727 323.986 182.411 326.528L219.229 351.934C221.07 353.205 221.991 354.87 221.992 356.535C221.992 358.202 221.071 359.868 219.229 361.139L182.411 386.546C178.727 389.087 172.755 389.087 169.071 386.546L132.253 361.139Z" fill="#C4C4C4"/>
<path d="M182.411 316.114C178.727 313.572 172.755 313.572 169.071 316.114L169.071 326.528C172.755 323.986 178.727 323.986 182.411 326.528L182.411 316.114Z" fill="#C4C4C4"/>
<path d="M169.071 316.114L132.253 341.52L132.253 351.934L169.071 326.528L169.071 316.114Z" fill="#C4C4C4"/>
<path d="M219.229 341.52L182.411 316.114L182.411 326.528L219.229 351.934L219.229 341.52Z" fill="#C4C4C4"/>
<path d="M221.992 346.121C221.991 344.456 221.07 342.79 219.229 341.52L219.229 351.934C221.07 353.205 221.991 354.87 221.992 356.535L221.992 346.121Z" fill="#C4C4C4"/>
<path d="M129.49 346.121C129.491 344.456 130.412 342.79 132.253 341.52L132.253 351.934C130.412 353.205 129.491 354.87 129.49 356.535L129.49 346.121Z" fill="#C4C4C4"/>
<path d="M219.229 350.725C221.07 349.454 221.991 347.789 221.992 346.124L221.992 356.535C221.992 358.202 221.071 359.868 219.229 361.139L219.229 350.725Z" fill="#BA3FA4"/>
<path d="M132.253 350.725C130.412 349.454 129.491 347.789 129.49 346.124L129.49 356.535C129.49 358.202 130.411 359.868 132.253 361.139L132.253 350.725Z" fill="#4C17BC"/>
<path fill-rule="evenodd" clip-rule="evenodd" d="M182.411 376.131L219.229 350.725V361.139L182.411 386.545C178.727 389.087 172.755 389.087 169.071 386.545V376.131C172.755 378.673 178.727 378.673 182.411 376.131V376.131L182.411 376.131ZM132.253 350.725L169.071 376.131L169.071 386.545L132.253 361.139L132.253 350.725Z" fill="url(#paint30_linear)"/>
<rect width="60.9404" height="60.9404" rx="6" transform="matrix(0.823062 -0.567952 0.823062 0.567952 125.583 346.122)" fill="url(#paint31_linear)"/>
<rect width="49.0627" height="49.0627" rx="10" transform="matrix(0.823062 -0.567952 0.823062 0.567952 135.802 345.965)" fill="url(#paint32_linear)"/>
<circle cx="224.66" cy="385.414" r="4.61179" fill="#1429DE"/>
<circle cx="305.037" cy="372.237" r="4.61179" fill="#1429DE"/>
<circle cx="37.5531" cy="257.601" r="4.61179" fill="#1429DE"/>
<defs>
<filter id="filter0_d" x="129.778" y="148.223" width="138.326" height="112.419" filterUnits="userSpaceOnUse" color-interpolation-filters="sRGB">
<feFlood flood-opacity="0" result="BackgroundImageFix"/>
<feColorMatrix in="SourceAlpha" type="matrix" values="0 0 0 0 0 0 0 0 0 0 0 0 0 0 0 0 0 0 127 0"/>
<feOffset dx="2" dy="10"/>
<feGaussianBlur stdDeviation="7.5"/>
<feColorMatrix type="matrix" values="0 0 0 0 0 0 0 0 0 0 0 0 0 0 0 0 0 0 0.25 0"/>
<feBlend mode="normal" in2="BackgroundImageFix" result="effect1_dropShadow"/>
<feBlend mode="normal" in="SourceGraphic" in2="effect1_dropShadow" result="shape"/>
</filter>
<linearGradient id="paint0_linear" x1="128.884" y1="237.723" x2="128.884" y2="256.829" gradientUnits="userSpaceOnUse">
<stop stop-color="#4C17BC"/>
<stop offset="1" stop-color="#072374"/>
</linearGradient>
<linearGradient id="paint1_linear" x1="75.8483" y1="184.358" x2="75.8483" y2="236.405" gradientUnits="userSpaceOnUse">
<stop stop-color="#4C17BC"/>
<stop offset="1" stop-color="#072374"/>
</linearGradient>
<linearGradient id="paint2_linear" x1="314.496" y1="197.928" x2="313.924" y2="198.748" gradientUnits="userSpaceOnUse">
<stop stop-color="#4C17BC"/>
<stop offset="1" stop-color="#072374"/>
</linearGradient>
<linearGradient id="paint3_linear" x1="273.254" y1="349.868" x2="272.682" y2="350.688" gradientUnits="userSpaceOnUse">
<stop stop-color="#4C17BC"/>
<stop offset="1" stop-color="#072374"/>
</linearGradient>
<linearGradient id="paint4_linear" x1="214.116" y1="378.152" x2="213.363" y2="379.233" gradientUnits="userSpaceOnUse">
<stop stop-color="#4C17BC"/>
<stop offset="1" stop-color="#072374"/>
</linearGradient>
<linearGradient id="paint5_linear" x1="141.789" y1="330.524" x2="141.217" y2="331.344" gradientUnits="userSpaceOnUse">
<stop stop-color="#4C17BC"/>
<stop offset="1" stop-color="#072374"/>
</linearGradient>
<linearGradient id="paint6_linear" x1="44.4949" y1="262.721" x2="43.9231" y2="263.541" gradientUnits="userSpaceOnUse">
<stop stop-color="#4C17BC"/>
<stop offset="1" stop-color="#072374"/>
</linearGradient>
<linearGradient id="paint7_linear" x1="118.875" y1="187.677" x2="118.303" y2="188.498" gradientUnits="userSpaceOnUse">
<stop stop-color="#4C17BC"/>
<stop offset="1" stop-color="#072374"/>
</linearGradient>
<linearGradient id="paint8_linear" x1="53.5889" y1="247.621" x2="52.9975" y2="248.428" gradientUnits="userSpaceOnUse">
<stop stop-color="#4C17BC"/>
<stop offset="1" stop-color="#072374"/>
</linearGradient>
<linearGradient id="paint9_linear" x1="178.758" y1="279.196" x2="178.548" y2="279.498" gradientUnits="userSpaceOnUse">
<stop stop-color="#4C17BC"/>
<stop offset="1" stop-color="#072374"/>
</linearGradient>
<linearGradient id="paint10_linear" x1="207.284" y1="307.558" x2="207.284" y2="325.347" gradientUnits="userSpaceOnUse">
<stop stop-color="#4C17BC"/>
<stop offset="1" stop-color="#072374"/>
</linearGradient>
<linearGradient id="paint11_linear" x1="260.598" y1="246.291" x2="260.434" y2="246.527" gradientUnits="userSpaceOnUse">
<stop stop-color="#4C17BC"/>
<stop offset="1" stop-color="#072374"/>
</linearGradient>
<linearGradient id="paint12_linear" x1="250.007" y1="254.168" x2="249.436" y2="254.988" gradientUnits="userSpaceOnUse">
<stop stop-color="#4C17BC"/>
<stop offset="1" stop-color="#072374"/>
</linearGradient>
<linearGradient id="paint13_linear" x1="240.033" y1="259.262" x2="239.461" y2="260.083" gradientUnits="userSpaceOnUse">
<stop stop-color="#4C17BC"/>
<stop offset="1" stop-color="#072374"/>
</linearGradient>
<linearGradient id="paint14_linear" x1="251.426" y1="160.64" x2="251.426" y2="171.181" gradientUnits="userSpaceOnUse">
<stop stop-color="#4C17BC"/>
<stop offset="1" stop-color="#072374"/>
</linearGradient>
<linearGradient id="paint15_linear" x1="350.908" y1="237.064" x2="350.908" y2="262.099" gradientUnits="userSpaceOnUse">
<stop stop-color="#4C17BC"/>
<stop offset="1" stop-color="#072374"/>
</linearGradient>
<linearGradient id="paint16_linear" x1="251.096" y1="317.441" x2="251.096" y2="327.982" gradientUnits="userSpaceOnUse">
<stop stop-color="#4C17BC"/>
<stop offset="1" stop-color="#072374"/>
</linearGradient>
<linearGradient id="paint17_linear" x1="143.378" y1="244.97" x2="143.378" y2="251.558" gradientUnits="userSpaceOnUse">
<stop stop-color="#4C17BC"/>
<stop offset="1" stop-color="#072374"/>
</linearGradient>
<linearGradient id="paint18_linear" x1="134.554" y1="256.644" x2="265.848" y2="241.443" gradientUnits="userSpaceOnUse">
<stop stop-color="#072374"/>
<stop offset="1" stop-color="#BA3FA4"/>
</linearGradient>
<linearGradient id="paint19_linear" x1="0.285875" y1="-0.221031" x2="65.072" y2="136.181" gradientUnits="userSpaceOnUse">
<stop stop-color="#4C17BC"/>
<stop offset="1" stop-color="#F573AD"/>
</linearGradient>
<linearGradient id="paint20_linear" x1="253.305" y1="201.369" x2="230.159" y2="204.242" gradientUnits="userSpaceOnUse">
<stop stop-color="#460EBC"/>
<stop offset="1" stop-color="#4C17BC"/>
</linearGradient>
<linearGradient id="paint21_linear" x1="233.554" y1="223.248" x2="174.713" y2="190.775" gradientUnits="userSpaceOnUse">
<stop stop-color="#4C17BC"/>
<stop offset="1" stop-color="#F573AD"/>
</linearGradient>
<linearGradient id="paint22_linear" x1="83.8786" y1="142.763" x2="56.7445" y2="6.28595" gradientUnits="userSpaceOnUse">
<stop offset="0.0984975" stop-color="#4C17BC"/>
<stop offset="1" stop-color="#F573AD"/>
</linearGradient>
<linearGradient id="paint23_linear" x1="203.926" y1="193.595" x2="202.55" y2="104.931" gradientUnits="userSpaceOnUse">
<stop stop-color="#FFC295"/>
<stop offset="1" stop-color="#FEBA96" stop-opacity="0"/>
</linearGradient>
<linearGradient id="paint24_linear" x1="243.043" y1="305.001" x2="353.627" y2="302.582" gradientUnits="userSpaceOnUse">
<stop stop-color="#4C17BC"/>
<stop offset="1" stop-color="#BA3FA4"/>
</linearGradient>
<linearGradient id="paint25_linear" x1="43.7372" y1="0" x2="43.7372" y2="87.4744" gradientUnits="userSpaceOnUse">
<stop stop-color="#F573AD"/>
<stop offset="0.619792" stop-color="#8C3AB6"/>
<stop offset="1" stop-color="#4C17BC"/>
</linearGradient>
<linearGradient id="paint26_linear" x1="31.9285" y1="2.89766" x2="34.6736" y2="69.5873" gradientUnits="userSpaceOnUse">
<stop stop-color="#F799C3"/>
<stop offset="1" stop-color="#F573AD"/>
</linearGradient>
<linearGradient id="paint27_linear" x1="39.8905" y1="323.723" x2="156.281" y2="314.833" gradientUnits="userSpaceOnUse">
<stop stop-color="#4C17BC"/>
<stop offset="1" stop-color="#BA3FA4"/>
</linearGradient>
<linearGradient id="paint28_linear" x1="43.7372" y1="0" x2="43.7372" y2="87.4744" gradientUnits="userSpaceOnUse">
<stop stop-color="#F573AD"/>
<stop offset="1" stop-color="#4C17BC"/>
</linearGradient>
<linearGradient id="paint29_linear" x1="16.1488" y1="-1.22336" x2="31.0676" y2="70.3585" gradientUnits="userSpaceOnUse">
<stop stop-color="#F89EC6"/>
<stop offset="1" stop-color="#F578AF"/>
</linearGradient>
<linearGradient id="paint30_linear" x1="136.022" y1="363.924" x2="217.632" y2="361.359" gradientUnits="userSpaceOnUse">
<stop stop-color="#4C17BC"/>
<stop offset="1" stop-color="#BA3FA4"/>
</linearGradient>
<linearGradient id="paint31_linear" x1="30.4702" y1="0" x2="30.4702" y2="60.9404" gradientUnits="userSpaceOnUse">
<stop stop-color="#F573AD"/>
<stop offset="1" stop-color="#4C17BC"/>
</linearGradient>
<linearGradient id="paint32_linear" x1="24.5314" y1="0" x2="24.5314" y2="49.0627" gradientUnits="userSpaceOnUse">
<stop stop-color="#F799C3"/>
<stop offset="1" stop-color="#F578AF"/>
</linearGradient>
</defs>
</svg>
